<svg id="Layer_1" xmlns="http://www.w3.org/2000/svg" width="336" height="508.5" viewBox="0 0 336 508.5"><style>.st0{fill:none;} .st1{fill:#F7BC60;} .st2{fill:#FFFFFF;}</style><pattern x="-243.5" y="654.8" width="69" height="69" patternUnits="userSpaceOnUse" id="Polka_Dot_Pattern" viewBox="2.1 -70.9 69 69" overflow="visible"><path class="st0" d="M71.1-1.9h-69v-69h69z"/><path class="st1" d="M71.1-1.9h-69v-69h69z"/><path class="st2" d="M61.8-71.7v.2c-.1.1-.1.1-.2.1-.1.1-.1.3-.1.4-.2.1 0 .2 0 .3v.2c0 .1 0 .3.1.4.1.2.3.4.4.5.2.1.4.6.6.6.2 0 .4-.1.5-.1.2 0 .4 0 .6-.1.2-.1.1-.3.3-.5.1-.1.3 0 .4-.1.2-.1.3-.3.4-.5v-.2c0-.1.1-.2.1-.3 0-.1-.1-.1-.1-.2v-.3c0-.2 0-.4-.1-.5-.4-.7-1.2-.9-2-.8-.2 0-.3.1-.4.2-.2.1-.1.2-.3.2-.1 0-.2.1-.2.2v.3c0 .1 0 .1 0 0M54.1-71.7v.2c-.1.1-.1.1-.2.1-.1.1-.1.3-.1.4-.2.1 0 .2 0 .3v.2c0 .1 0 .3.1.4.1.2.3.4.4.5.2.1.4.6.6.6.2 0 .4-.1.5-.1.2 0 .4 0 .6-.1.2-.1.1-.3.3-.5.1-.1.3 0 .4-.1.2-.1.3-.3.4-.5v-.2c0-.1.1-.2.1-.3 0-.1-.1-.1-.1-.2v-.3c0-.2 0-.4-.1-.5-.4-.7-1.2-.9-2-.8-.2 0-.3.1-.4.2-.2.1-.1.2-.3.2-.1 0-.2.1-.2.2v.3c0 .1 0 .1 0 0M46.4-71.7v.2c-.1.1-.1.1-.2.1-.1.1-.1.3-.1.4-.2.1 0 .2 0 .3v.2c0 .1 0 .3.1.4.1.2.3.4.4.5.2.1.4.6.6.6.2 0 .4-.1.5-.1.2 0 .4 0 .6-.1.2-.1.1-.3.3-.5.1-.1.3 0 .4-.1.2-.1.3-.3.4-.5v-.2c0-.1.1-.2.1-.3 0-.1-.1-.1-.1-.2v-.3c0-.2 0-.4-.1-.5-.4-.7-1.2-.9-2-.8-.2 0-.3.1-.4.2-.2.1-.1.2-.3.2-.1 0-.2.1-.2.2v.3c0 .1 0 .1 0 0M38.8-71.7v.2c-.1.1-.1.1-.2.1-.1.1-.1.3-.1.4-.2.1 0 .2 0 .3v.2c0 .1 0 .3.1.4.1.2.3.4.4.5.2.1.4.6.6.6.2 0 .4-.1.5-.1.2 0 .4 0 .6-.1.2-.1.1-.3.3-.5.1-.1.3 0 .4-.1.2-.1.3-.3.4-.5v-.2c0-.1.1-.2.1-.3 0-.1-.1-.1-.1-.2v-.3c0-.2 0-.4-.1-.5-.4-.7-1.2-.9-2-.8-.2 0-.3.1-.4.2-.2.1-.1.2-.3.2-.1 0-.2.1-.2.2v.3c0 .1 0 .1 0 0M31.1-71.7v.2c-.1.1-.1.1-.2.1-.1.1-.1.3-.1.4-.2.1 0 .2 0 .3v.2c0 .1 0 .3.1.4.1.2.3.4.4.5.2.1.4.6.6.6.2 0 .4-.1.5-.1.2 0 .4 0 .6-.1.2-.1.1-.3.3-.5.1-.1.3 0 .4-.1.2-.1.3-.3.4-.5v-.2c0-.1.1-.2.1-.3 0-.1-.1-.1-.1-.2v-.3c0-.2 0-.4-.1-.5-.4-.7-1.2-.9-2-.8-.2 0-.3.1-.4.2-.2.1-.1.2-.3.2-.1 0-.2.1-.2.2v.3c0 .1 0 .1 0 0M23.4-71.7v.2c-.1.1-.1.1-.2.1-.1.1-.1.3-.1.4-.2.1 0 .2 0 .3v.2c0 .1 0 .3.1.4.1.2.3.4.4.5.2.1.4.6.6.6.2 0 .4-.1.5-.1.2 0 .4 0 .6-.1.2-.1.1-.3.3-.5.1-.1.3 0 .4-.1.2-.1.3-.3.4-.5v-.2c0-.1.1-.2.1-.3 0-.1-.1-.1-.1-.2v-.3c0-.2 0-.4-.1-.5-.4-.7-1.2-.9-2-.8-.2 0-.3.1-.4.2-.2.1-.1.2-.3.2-.1 0-.2.1-.2.2v.3c0 .1 0 .1 0 0M15.8-71.7v.2c-.1.1-.1.1-.2.1-.1.1-.1.3-.1.4-.2.1 0 .2 0 .3v.2c0 .1 0 .3.1.4.1.2.3.4.4.5.2.1.4.6.6.6.2 0 .4-.1.5-.1.2 0 .4 0 .6-.1.2-.1.1-.3.3-.5.1-.1.3 0 .4-.1.2-.1.3-.3.4-.5v-.2c0-.1.1-.2.1-.3 0-.1-.1-.1-.1-.2v-.3c0-.2 0-.4-.1-.5-.4-.7-1.2-.9-2-.8-.2 0-.3.1-.4.2-.2.1-.1.2-.3.2-.1 0-.2.1-.2.2v.3c0 .1 0 .1 0 0M8.1-71.7v.2l-.2.2c-.1.1-.1.3-.1.4-.2.1 0 .2 0 .3v.2c0 .1 0 .3.1.4.1.2.3.4.4.5.2.1.4.6.6.6.2 0 .4-.1.5-.1.2 0 .4 0 .6-.1.2-.1.1-.3.3-.5.1-.1.3 0 .4-.1.2-.1.3-.3.4-.5v-.2c0-.1.1-.2.1-.3 0-.1-.1-.1-.1-.2v-.3c0-.2 0-.4-.1-.5-.4-.7-1.2-.9-2-.8-.2 0-.3.1-.4.2-.2.1-.1.2-.3.2-.1 0-.2.1-.2.2v.2c0 .1 0 .1 0 0M.4-71.7v.2c-.1.1-.1.1-.2.1-.1.1-.1.3-.1.4-.2.1 0 .2 0 .3v.2c0 .1 0 .3.1.4.1.2.3.4.4.5.2.2.4.6.6.7.2 0 .4-.1.5-.1.2 0 .4 0 .6-.1.2-.1.1-.3.3-.5.1-.1.3 0 .4-.1.2-.1.3-.3.4-.5v-.2c0-.1.1-.2.1-.3 0-.1-.1-.1-.1-.2v-.3c0-.2 0-.4-.1-.5-.4-.7-1.2-.9-2-.8-.2 0-.3.1-.4.2-.2.1-.1.2-.3.2-.1 0-.2.1-.2.2v.2c0 .1 0 .1 0 0"/><g><path class="st2" d="M69.4-71.7v.2c-.1.1-.1.1-.2.1-.1.1-.1.3-.1.4-.2.1 0 .2 0 .3v.2c0 .1 0 .3.1.4.1.2.3.4.4.5.2.1.4.6.6.6.2 0 .4-.1.5-.1.2 0 .4 0 .6-.1.2-.1.1-.3.3-.5.1-.1.3 0 .4-.1.2-.1.3-.3.4-.5v-.2c0-.1.1-.2.1-.3 0-.1-.1-.1-.1-.2v-.3c0-.2 0-.4-.1-.5-.4-.7-1.2-.9-2-.8-.2 0-.3.1-.4.2-.2.1-.1.2-.3.2-.1 0-.2.1-.2.2v.3c0 .1 0 .1 0 0"/></g><path class="st2" d="M.5-71.7v.2c-.1.1-.1.1-.2.1-.1.1-.1.3-.1.4-.2.1 0 .2 0 .3v.2c0 .1 0 .3.1.4.1.2.3.4.4.5.2.2.3.6.6.7.2 0 .4-.1.5-.1.2 0 .4 0 .6-.1.2-.1.1-.3.3-.5.1-.1.3 0 .4-.1.2-.1.3-.3.4-.5v-.2c0-.1.1-.2.1-.3 0-.1-.1-.1-.1-.2v-.3c0-.2 0-.4-.1-.5-.4-.7-1.2-.9-2-.8-.2 0-.3.1-.4.2-.2.1-.1.2-.3.2-.1 0-.2.1-.2.2v.2c0 .1 0 .1 0 0"/><g><path class="st2" d="M69.4-64v.2c-.1.1-.1.1-.2.1-.1.1-.1.3-.1.4-.2.1 0 .2 0 .3v.2c0 .1 0 .3.1.4.1.2.3.4.4.5.2.1.4.6.6.6.2 0 .4-.1.5-.1.2 0 .4 0 .6-.1.2-.1.1-.3.3-.5.1-.1.3 0 .4-.1.2-.1.3-.3.4-.5v-.2c0-.1.1-.2.1-.3 0-.1-.1-.1-.1-.2v-.3c0-.2 0-.4-.1-.5-.4-.7-1.2-.9-2-.8-.2 0-.3.1-.4.2-.2.1-.1.2-.3.2-.1 0-.2.1-.2.2v.3M61.8-64v.2c-.1.1-.1.1-.2.1-.1.1-.1.3-.1.4-.2.1 0 .2 0 .3v.2c0 .1 0 .3.1.4.1.2.3.4.4.5.2.1.4.6.6.6.2 0 .4-.1.5-.1.2 0 .4 0 .6-.1.2-.1.1-.3.3-.5.1-.1.3 0 .4-.1.2-.1.3-.3.4-.5v-.2c0-.1.1-.2.1-.3 0-.1-.1-.1-.1-.2v-.3c0-.2 0-.4-.1-.5-.4-.7-1.2-.9-2-.8-.2 0-.3.1-.4.2-.2.1-.1.2-.3.2-.1 0-.2.1-.2.2v.3M54.1-64v.2c-.1.1-.1.1-.2.1-.1.1-.1.3-.1.4-.2.1 0 .2 0 .3v.2c0 .1 0 .3.1.4.1.2.3.4.4.5.2.1.4.6.6.6.2 0 .4-.1.5-.1.2 0 .4 0 .6-.1.2-.1.1-.3.3-.5.1-.1.3 0 .4-.1.2-.1.3-.3.4-.5v-.2c0-.1.1-.2.1-.3 0-.1-.1-.1-.1-.2v-.3c0-.2 0-.4-.1-.5-.4-.7-1.2-.9-2-.8-.2 0-.3.1-.4.2-.2.1-.1.2-.3.2-.1 0-.2.1-.2.2v.3M46.5-64v.2c-.1.1-.1.1-.2.1-.1.1-.1.3-.1.4-.2.1 0 .2 0 .3v.2c0 .1 0 .3.1.4.1.2.3.4.4.5.2.1.4.6.6.6.2 0 .4-.1.5-.1.2 0 .4 0 .6-.1.2-.1.1-.3.3-.5.1-.1.3 0 .4-.1.2-.1.3-.3.4-.5v-.2c0-.1.1-.2.1-.3 0-.1-.1-.1-.1-.2v-.3c0-.2 0-.4-.1-.5-.4-.7-1.2-.9-2-.8-.2 0-.3.1-.4.2-.2.1-.1.2-.3.2-.1 0-.2.1-.2.2v.3M38.8-64v.2c-.1.1-.1.1-.2.1-.1.1-.1.3-.1.4-.2.1 0 .2 0 .3v.2c0 .1 0 .3.1.4.1.2.3.4.4.5.2.1.4.6.6.6.2 0 .4-.1.5-.1.2 0 .4 0 .6-.1.2-.1.1-.3.3-.5.1-.1.3 0 .4-.1.2-.1.3-.3.4-.5v-.2c0-.1.1-.2.1-.3 0-.1-.1-.1-.1-.2v-.3c0-.2 0-.4-.1-.5-.4-.7-1.2-.9-2-.8-.2 0-.3.1-.4.2-.2.1-.1.2-.3.2-.1 0-.2.1-.2.2v.3M31.1-64v.2c-.1.1-.1.1-.2.1-.1.1-.1.3-.1.4-.2.1 0 .2 0 .3v.2c0 .1 0 .3.1.4.1.2.3.4.4.5.2.1.4.6.6.6.2 0 .4-.1.5-.1.2 0 .4 0 .6-.1.2-.1.1-.3.3-.5.1-.1.3 0 .4-.1.2-.1.3-.3.4-.5v-.2c0-.1.1-.2.1-.3 0-.1-.1-.1-.1-.2v-.3c0-.2 0-.4-.1-.5-.4-.7-1.2-.9-2-.8-.2 0-.3.1-.4.2-.2.1-.1.2-.3.2-.1 0-.2.1-.2.2v.3M23.5-64v.2c-.1.1-.1.1-.2.1-.1.1-.1.3-.1.4-.2.1 0 .2 0 .3v.2c0 .1 0 .3.1.4.1.2.3.4.4.5.2.1.4.6.6.6.2 0 .4-.1.5-.1.2 0 .4 0 .6-.1.2-.1.1-.3.3-.5.1-.1.3 0 .4-.1.2-.1.3-.3.4-.5v-.2c0-.1.1-.2.1-.3 0-.1-.1-.1-.1-.2v-.3c0-.2 0-.4-.1-.5-.4-.7-1.2-.9-2-.8-.2 0-.3.1-.4.2-.2.1-.1.2-.3.2-.1 0-.2.1-.2.2v.3M15.8-64v.2c-.1.1-.1.1-.2.1-.1.1-.1.3-.1.4-.2.1 0 .2 0 .3v.2c0 .1 0 .3.1.4.1.2.3.4.4.5.2.1.4.6.6.6.2 0 .4-.1.5-.1.2 0 .4 0 .6-.1.2-.1.1-.3.3-.5.1-.1.3 0 .4-.1.2-.1.3-.3.4-.5v-.2c0-.1.1-.2.1-.3 0-.1-.1-.1-.1-.2v-.3c0-.2 0-.4-.1-.5-.4-.7-1.2-.9-2-.8-.2 0-.3.1-.4.2-.2.1-.1.2-.3.2-.1 0-.2.1-.2.2v.3M8.2-64v.2c-.1.1-.2.1-.2.1-.1.1-.1.3-.1.4-.2.1 0 .2 0 .3v.2c0 .1 0 .3.1.4 0 .2.2.4.3.5.2.1.4.6.6.6.2 0 .4-.1.5-.1.2 0 .4 0 .6-.1.2-.1.1-.3.3-.5.1-.1.3 0 .4-.1.2-.1.3-.3.4-.5v-.2c0-.1.1-.2.1-.3 0-.1-.1-.1-.1-.2v-.3c0-.2 0-.4-.1-.5-.4-.7-1.2-.9-2-.8-.2 0-.3.1-.4.2-.2.1-.1.2-.3.2-.1 0-.2.1-.2.2.1.3.1.2.1.3-.1 0-.1 0 0 0M.5-64v.2c-.1.1-.1.1-.2.1-.1.1-.1.3-.1.4-.2.1 0 .2 0 .3v.2c0 .1 0 .3.1.4.1.2.3.4.4.5.2.1.4.6.6.6.2 0 .4-.1.5-.1.2 0 .4 0 .6-.1.2-.1.1-.3.3-.5.1 0 .3.1.4 0 .2-.1.3-.3.4-.5v-.2c0-.1.1-.2.1-.3 0-.1-.1-.1-.1-.2v-.3c0-.2 0-.4-.1-.5-.4-.7-1.2-.9-2-.8-.2 0-.3.1-.4.2-.2.1-.1.2-.3.2-.1 0-.2.1-.2.2v.2"/><g><path class="st2" d="M69.4-56.3v.2c-.1.1-.1.1-.2.1-.1.1-.1.3-.1.4-.2.1 0 .2 0 .3v.2c0 .1 0 .3.1.4.1.2.3.4.4.5.2.1.4.6.6.6.2 0 .4-.1.5-.1.2 0 .4 0 .6-.1.2-.1.1-.3.3-.5.1-.1.3 0 .4-.1.2-.1.3-.3.4-.5v-.2c0-.1.1-.2.1-.3 0-.1-.1-.1-.1-.2v-.3c0-.2 0-.4-.1-.5-.4-.7-1.2-.9-2-.8-.2 0-.3.1-.4.2-.2.1-.1.2-.3.2-.1 0-.2.1-.2.2v.3M61.8-56.3v.2c-.1.1-.1.1-.2.1-.1.1-.1.3-.1.4-.2.1 0 .2 0 .3v.2c0 .1 0 .3.1.4.1.2.3.4.4.5.2.1.4.6.6.6.2 0 .4-.1.5-.1.2 0 .4 0 .6-.1.2-.1.1-.3.3-.5.1-.1.3 0 .4-.1.2-.1.3-.3.4-.5v-.2c0-.1.1-.2.1-.3 0-.1-.1-.1-.1-.2v-.3c0-.2 0-.4-.1-.5-.4-.7-1.2-.9-2-.8-.2 0-.3.1-.4.2-.2.1-.1.2-.3.2-.1 0-.2.1-.2.2v.3M54.1-56.3v.2c-.1 0-.1 0-.2.1s-.1.3-.1.4c-.2.1 0 .2 0 .3v.2c0 .1 0 .3.1.4.1.2.3.4.4.5.2.1.4.6.6.6.2 0 .4-.1.5-.1.2 0 .4 0 .6-.1.2-.1.1-.3.3-.5.1-.1.3 0 .4-.1.2-.1.3-.3.4-.5v-.2c0-.1.1-.2.1-.3 0-.1-.1-.1-.1-.2v-.3c0-.2 0-.4-.1-.5-.4-.7-1.2-.9-2-.8-.2 0-.3.1-.4.2-.2.1-.1.2-.3.2-.1 0-.2.1-.2.2v.3M46.5-56.3v.2c-.1.1-.1.1-.2.1-.1.1-.1.3-.1.4-.2.1 0 .2 0 .3v.2c0 .1 0 .3.1.4.1.2.3.4.4.5.2.1.4.6.6.6.2 0 .4-.1.5-.1.2 0 .4 0 .6-.1.2-.1.1-.3.3-.5.1-.1.3 0 .4-.1.2-.1.3-.3.4-.5v-.2c0-.1.1-.2.1-.3 0-.1-.1-.1-.1-.2v-.3c0-.2 0-.4-.1-.5-.4-.7-1.2-.9-2-.8-.2 0-.3.1-.4.2-.2.1-.1.2-.3.2-.1 0-.2.1-.2.2v.3M38.8-56.3v.2c-.1.1-.1.1-.2.1-.1.1-.1.3-.1.4-.2.1 0 .2 0 .3v.2c0 .1 0 .3.1.4.1.2.3.4.4.5.2.1.4.6.6.6.2 0 .4-.1.5-.1.2 0 .4 0 .6-.1.2-.1.1-.3.3-.5.1-.1.3 0 .4-.1.2-.1.3-.3.4-.5v-.2c0-.1.1-.2.1-.3 0-.1-.1-.1-.1-.2v-.3c0-.2 0-.4-.1-.5-.4-.7-1.2-.9-2-.8-.2 0-.3.1-.4.2-.2.1-.1.2-.3.2-.1 0-.2.1-.2.2v.3M31.1-56.3v.2c-.1.1-.1.1-.2.1-.1.1-.1.3-.1.4-.2.1 0 .2 0 .3v.2c0 .1 0 .3.1.4.1.2.3.4.4.5.2.1.4.6.6.6.2 0 .4-.1.5-.1.2 0 .4 0 .6-.1.2-.1.1-.3.3-.5.1-.1.3 0 .4-.1.2-.1.3-.3.4-.5v-.2c0-.1.1-.2.1-.3 0-.1-.1-.1-.1-.2v-.3c0-.2 0-.4-.1-.5-.4-.7-1.2-.9-2-.8-.2 0-.3.1-.4.2-.2.1-.1.2-.3.2-.1 0-.2.1-.2.2v.3M23.5-56.3v.2c-.1.1-.1.1-.2.1-.1.1-.1.3-.1.4-.2.1 0 .2 0 .3v.2c0 .1 0 .3.1.4.1.2.3.4.4.5.2.1.4.6.6.6.2 0 .4-.1.5-.1.2 0 .4 0 .6-.1.2-.1.1-.3.3-.5.1-.1.3 0 .4-.1.2-.1.3-.3.4-.5v-.2c0-.1.1-.2.1-.3 0-.1-.1-.1-.1-.2v-.3c0-.2 0-.4-.1-.5-.4-.7-1.2-.9-2-.8-.2 0-.3.1-.4.2-.2.1-.1.2-.3.2-.1 0-.2.1-.2.2v.3M15.8-56.3v.2c-.1.1-.1.1-.2.1-.1.1-.1.3-.1.4-.2.1 0 .2 0 .3v.2c0 .1 0 .3.1.4.1.2.3.4.4.5.2.1.4.6.6.6.2 0 .4-.1.5-.1.2 0 .4 0 .6-.1.2-.1.1-.3.3-.5.1-.1.3 0 .4-.1.2-.1.3-.3.4-.5v-.2c0-.1.1-.2.1-.3 0-.1-.1-.1-.1-.2v-.3c0-.2 0-.4-.1-.5-.4-.7-1.2-.9-2-.8-.2 0-.3.1-.4.2-.2.1-.1.2-.3.2-.1 0-.2.1-.2.2v.3M8.2-56.3v.2c-.1 0-.2 0-.2.1-.1.1-.1.3-.1.4-.2.1 0 .2 0 .3v.2c0 .1 0 .3.1.4.1.2.3.4.4.5.2.1.4.6.6.6.2 0 .4-.1.5-.1.2 0 .4 0 .6-.1.2-.1.1-.3.3-.5.1-.1.3 0 .4-.1.2-.1.3-.3.4-.5v-.2c0-.1.1-.2.1-.3 0-.1-.1-.1-.1-.2v-.3c0-.2 0-.4-.1-.5-.4-.7-1.2-.9-2-.8-.2 0-.3.1-.4.2-.2.1-.1.2-.3.2-.1 0-.2.1-.2.2v.3c-.1 0-.1 0 0 0M.5-56.3v.2c-.1.1-.1.1-.2.1-.1.1-.1.3-.1.4-.2.1 0 .2 0 .3v.2c0 .1 0 .3.1.4.1.2.3.4.4.5.2.1.4.6.6.6.2 0 .4-.1.5-.1.2 0 .4 0 .6-.1.2-.1.1-.3.3-.5.1-.1.3 0 .4-.1.2-.1.3-.3.4-.5v-.2c0-.1.1-.2.1-.3 0-.1-.1-.1-.1-.2v-.3c0-.2 0-.4-.1-.5-.4-.7-1.2-.9-2-.8-.2 0-.3.1-.4.2-.2.1-.1.2-.3.2-.1 0-.2.1-.2.2v.3"/></g><g><path class="st2" d="M69.4-48.7v.2c-.1.1-.1.1-.2.1-.1.1-.1.3-.1.4-.2.1 0 .2 0 .3v.2c0 .1 0 .3.1.4.1.2.3.4.4.5.2.1.4.6.6.6.2 0 .4-.1.5-.1.2 0 .4 0 .6-.1.2-.1.1-.3.3-.5.1-.1.3 0 .4-.1.2-.1.3-.3.4-.5v-.2c0-.1.1-.2.1-.3 0-.1-.1-.1-.1-.2v-.3c0-.2 0-.4-.1-.5-.4-.7-1.2-.9-2-.8-.2 0-.3.1-.4.2-.2.1-.1.2-.3.2-.1 0-.2.1-.2.2v.3M61.8-48.7v.2c-.1.1-.1.1-.2.1-.1.1-.1.3-.1.4-.2.1 0 .2 0 .3v.2c0 .1 0 .3.1.4.1.2.3.4.4.5.2.1.4.6.6.6.2 0 .4-.1.5-.1.2 0 .4 0 .6-.1.2-.1.1-.3.3-.5.1-.1.3 0 .4-.1.2-.1.3-.3.4-.5v-.2c0-.1.1-.2.1-.3 0-.1-.1-.1-.1-.2v-.3c0-.2 0-.4-.1-.5-.4-.7-1.2-.9-2-.8-.2 0-.3.1-.4.2-.2.1-.1.2-.3.2-.1 0-.2.1-.2.2v.3M54.1-48.7v.2c-.1.1-.1.1-.2.1-.1.1-.1.3-.1.4-.2.1 0 .2 0 .3v.2c0 .1 0 .3.1.4.1.2.3.4.4.5.2.1.4.6.6.6.2 0 .4-.1.5-.1.2 0 .4 0 .6-.1.2-.1.1-.3.3-.5.1-.1.3 0 .4-.1.2-.1.3-.3.4-.5v-.2c0-.1.1-.2.1-.3 0-.1-.1-.1-.1-.2v-.3c0-.2 0-.4-.1-.5-.4-.7-1.2-.9-2-.8-.2 0-.3.1-.4.2-.2.1-.1.2-.3.2-.1 0-.2.1-.2.2v.3M46.5-48.7v.2c-.1.1-.1.1-.2.1-.1.1-.1.3-.1.4-.2.1 0 .2 0 .3v.2c0 .1 0 .3.1.4.1.2.3.4.4.5.2.1.4.6.6.6.2 0 .4-.1.5-.1.2 0 .4 0 .6-.1.2-.1.1-.3.3-.5.1-.1.3 0 .4-.1.2-.1.3-.3.4-.5v-.2c0-.1.1-.2.1-.3 0-.1-.1-.1-.1-.2v-.3c0-.2 0-.4-.1-.5-.4-.7-1.2-.9-2-.8-.2 0-.3.1-.4.2-.2.1-.1.2-.3.2-.1 0-.2.1-.2.2v.3M38.8-48.7v.2c-.1.1-.1.1-.2.1-.1.1-.1.3-.1.4-.2.1 0 .2 0 .3v.2c0 .1 0 .3.1.4.1.2.3.4.4.5.2.1.4.6.6.6.2 0 .4-.1.5-.1.2 0 .4 0 .6-.1.2-.1.1-.3.3-.5.1-.1.3 0 .4-.1.2-.1.3-.3.4-.5v-.2c0-.1.1-.2.1-.3 0-.1-.1-.1-.1-.2v-.3c0-.2 0-.4-.1-.5-.4-.7-1.2-.9-2-.8-.2 0-.3.1-.4.2-.2.1-.1.2-.3.2-.1 0-.2.1-.2.2v.3M31.1-48.7v.2c-.1.1-.1.1-.2.1-.1.1-.1.3-.1.4-.2.1 0 .2 0 .3v.2c0 .1 0 .3.1.4.1.2.3.4.4.5.2.1.4.6.6.6.2 0 .4-.1.5-.1.2 0 .4 0 .6-.1.2-.1.1-.3.3-.5.1-.1.3 0 .4-.1.2-.1.3-.3.4-.5v-.2c0-.1.1-.2.1-.3 0-.1-.1-.1-.1-.2v-.3c0-.2 0-.4-.1-.5-.4-.7-1.2-.9-2-.8-.2 0-.3.1-.4.2-.2.1-.1.2-.3.2-.1 0-.2.1-.2.2v.3M23.5-48.7v.2c-.1.1-.1.1-.2.1-.1.1-.1.3-.1.4-.2.1 0 .2 0 .3v.2c0 .1 0 .3.1.4.1.2.3.4.4.5.2.1.4.6.6.6.2 0 .4-.1.5-.1.2 0 .4 0 .6-.1.2-.1.1-.3.3-.5.1-.1.3 0 .4-.1.2-.1.3-.3.4-.5v-.2c0-.1.1-.2.1-.3 0-.1-.1-.1-.1-.2v-.3c0-.2 0-.4-.1-.5-.4-.7-1.2-.9-2-.8-.2 0-.3.1-.4.2-.2.1-.1.2-.3.2-.1 0-.2.1-.2.2v.3M15.8-48.7v.2c-.1.1-.1.1-.2.1-.1.1-.1.3-.1.4-.2.1 0 .2 0 .3v.2c0 .1 0 .3.1.4.1.2.3.4.4.5.2.1.4.6.6.6.2 0 .4-.1.5-.1.2 0 .4 0 .6-.1.2-.1.1-.3.3-.5.1-.1.3 0 .4-.1.2-.1.3-.3.4-.5v-.2c0-.1.1-.2.1-.3 0-.1-.1-.1-.1-.2v-.3c0-.2 0-.4-.1-.5-.4-.7-1.2-.9-2-.8-.2 0-.3.1-.4.2-.2.1-.1.2-.3.2-.1 0-.2.1-.2.2v.3M8.2-48.7v.2c-.1.1-.2.1-.2.1-.1.1-.1.3-.1.4-.2.1 0 .2 0 .3v.2c0 .1 0 .3.1.4.1.2.3.4.4.5.1.2.3.6.5.6s.4-.1.5-.1c.2 0 .4 0 .6-.1.2-.1.1-.3.3-.5.1-.1.3 0 .4-.1.2-.1.3-.3.4-.5v-.2c0-.1.1-.2.1-.3 0-.1-.1-.1-.1-.2v-.3c0-.2 0-.4-.1-.5-.4-.7-1.2-.9-2-.8-.2 0-.3.1-.4.2-.2.1-.1.2-.3.2-.1 0-.2.1-.2.2.1.3.1.2.1.3-.1 0-.1 0 0 0M.5-48.7v.2c-.1.1-.1.1-.2.1-.1.1-.1.3-.1.4-.2.1 0 .2 0 .3v.2c0 .1 0 .3.1.4.1.2.3.4.4.5.2.2.3.6.6.6.2 0 .4-.1.5-.1.2 0 .4 0 .6-.1.2-.1.1-.3.3-.5.1-.1.3 0 .4-.1.2-.1.3-.3.4-.5v-.2c0-.1.1-.2.1-.3 0-.1-.1-.1-.1-.2v-.3c0-.2 0-.4-.1-.5-.4-.7-1.2-.9-2-.8-.2 0-.3.1-.4.2-.2.1-.1.2-.3.2-.1 0-.2.1-.2.2v.3"/></g><g><path class="st2" d="M69.4-41v.2c-.1.1-.1.1-.2.1-.1.1-.1.3-.1.4-.2.1 0 .2 0 .3v.2c0 .1 0 .3.1.4.1.2.3.4.4.5.2.1.4.6.6.6.2 0 .4-.1.5-.1.2 0 .4 0 .6-.1.2-.1.1-.3.3-.5.1-.1.3 0 .4-.1.2-.1.3-.3.4-.5v-.2c0-.1.1-.2.1-.3 0-.1-.1-.1-.1-.2v-.3c0-.2 0-.4-.1-.5-.4-.7-1.2-.9-2-.8-.2 0-.3.1-.4.2-.2.1-.1.2-.3.2-.1 0-.2.1-.2.2v.3M61.8-41v.2c-.1.1-.1.1-.2.1-.1.1-.1.3-.1.4-.2.1 0 .2 0 .3v.2c0 .1 0 .3.1.4.1.2.3.4.4.5.2.1.4.6.6.6.2 0 .4-.1.5-.1.2 0 .4 0 .6-.1.2-.1.1-.3.3-.5.1-.1.3 0 .4-.1.2-.1.3-.3.4-.5v-.2c0-.1.1-.2.1-.3 0-.1-.1-.1-.1-.2v-.3c0-.2 0-.4-.1-.5-.4-.7-1.2-.9-2-.8-.2 0-.3.1-.4.2-.2.1-.1.2-.3.2-.1 0-.2.1-.2.2v.3M54.1-41v.2c-.1.1-.1.1-.2.1-.1.1-.1.3-.1.4-.2.1 0 .2 0 .3v.2c0 .1 0 .3.1.4.1.2.3.4.4.5.2.1.4.6.6.6.2 0 .4-.1.5-.1.2 0 .4 0 .6-.1.2-.1.1-.3.3-.5.1-.1.3 0 .4-.1.2-.1.3-.3.4-.5v-.2c0-.1.1-.2.1-.3 0-.1-.1-.1-.1-.2v-.3c0-.2 0-.4-.1-.5-.4-.7-1.2-.9-2-.8-.2 0-.3.1-.4.2-.2.1-.1.2-.3.2-.1 0-.2.1-.2.2v.3M46.5-41v.2c-.1.1-.1.1-.2.1-.1.1-.1.3-.1.4-.2.1 0 .2 0 .3v.2c0 .1 0 .3.1.4.1.2.3.4.4.5.2.1.4.6.6.6.2 0 .4-.1.5-.1.2 0 .4 0 .6-.1.2-.1.1-.3.3-.5.1-.1.3 0 .4-.1.2-.1.3-.3.4-.5v-.2c0-.1.1-.2.1-.3 0-.1-.1-.1-.1-.2v-.3c0-.2 0-.4-.1-.5-.4-.7-1.2-.9-2-.8-.2 0-.3.1-.4.2-.2.1-.1.2-.3.2-.1 0-.2.1-.2.2v.3M38.8-41v.2c-.1.1-.1.1-.2.1-.1.1-.1.3-.1.4-.2.1 0 .2 0 .3v.2c0 .1 0 .3.1.4.1.2.3.4.4.5.2.1.4.6.6.6.2 0 .4-.1.5-.1.2 0 .4 0 .6-.1.2-.1.1-.3.3-.5.1-.1.3 0 .4-.1.2-.1.3-.3.4-.5v-.2c0-.1.1-.2.1-.3 0-.1-.1-.1-.1-.2v-.3c0-.2 0-.4-.1-.5-.4-.7-1.2-.9-2-.8-.2 0-.3.1-.4.2-.2.1-.1.2-.3.2-.1 0-.2.1-.2.2v.3M31.1-41v.2c-.1.1-.1.1-.2.1-.1.1-.1.3-.1.4-.2.1 0 .2 0 .3v.2c0 .1 0 .3.1.4.1.2.3.4.4.5.2.1.4.6.6.6.2 0 .4-.1.5-.1.2 0 .4 0 .6-.1.2-.1.1-.3.3-.5.1-.1.3 0 .4-.1.2-.1.3-.3.4-.5v-.2c0-.1.1-.2.1-.3 0-.1-.1-.1-.1-.2v-.3c0-.2 0-.4-.1-.5-.4-.7-1.2-.9-2-.8-.2 0-.3.1-.4.2-.2.1-.1.2-.3.2-.1 0-.2.1-.2.2v.3M23.5-41v.2c-.1.1-.1.1-.2.1-.1.1-.1.3-.1.4-.2.1 0 .2 0 .3v.2c0 .1 0 .3.1.4.1.2.3.4.4.5.2.1.4.6.6.6.2 0 .4-.1.5-.1.2 0 .4 0 .6-.1.2-.1.1-.3.3-.5.1-.1.3 0 .4-.1.2-.1.3-.3.4-.5v-.2c0-.1.1-.2.1-.3 0-.1-.1-.1-.1-.2v-.3c0-.2 0-.4-.1-.5-.4-.7-1.2-.9-2-.8-.2 0-.3.1-.4.2-.2.1-.1.2-.3.2-.1 0-.2.1-.2.2v.3M15.8-41v.2c-.1.1-.1.1-.2.1-.1.1-.1.3-.1.4-.2.1 0 .2 0 .3v.2c0 .1 0 .3.1.4.1.2.3.4.4.5.2.1.4.6.6.6.2 0 .4-.1.5-.1.2 0 .4 0 .6-.1.2-.1.1-.3.3-.5.1-.1.3 0 .4-.1.2-.1.3-.3.4-.5v-.2c0-.1.1-.2.1-.3 0-.1-.1-.1-.1-.2v-.3c0-.2 0-.4-.1-.5-.4-.7-1.2-.9-2-.8-.2 0-.3.1-.4.2-.2.1-.1.2-.3.2-.1 0-.2.1-.2.2v.3M8.2-41v.2c-.1 0-.2 0-.2.1-.1.1-.1.3-.1.4-.2.1 0 .2 0 .3v.2c0 .1 0 .3.1.4.1.2.3.4.4.5.2.1.4.6.6.6.2 0 .4-.1.5-.1.2 0 .4 0 .6-.1.2-.1.1-.3.3-.5.1-.1.3 0 .4-.1.2-.1.3-.3.4-.5v-.2c0-.1.1-.2.1-.3 0-.1-.1-.1-.1-.2v-.3c0-.2 0-.4-.1-.5-.4-.7-1.2-.9-2-.8-.2 0-.3.1-.4.2-.2.1-.1.2-.3.2-.1 0-.2.1-.2.2v.3c-.1 0-.1 0 0 0M.5-41v.2c-.1.1-.1.1-.2.1-.1.1-.1.3-.1.4-.2.1 0 .2 0 .3v.2c0 .1 0 .3.1.4.1.2.3.4.4.5.2.1.4.6.6.6.2 0 .4-.1.5-.1.2 0 .4 0 .6-.1.2-.1.1-.3.3-.5h.4c.2-.1.3-.3.4-.5v-.2c0-.1.1-.2.1-.3 0-.1-.1-.1-.1-.2v-.3c0-.2 0-.4-.1-.5-.4-.7-1.2-.9-2-.8-.2 0-.3.1-.4.2-.2.1-.1.2-.3.2-.1 0-.2.1-.2.2v.2"/></g><g><path class="st2" d="M69.4-33.4v.2c-.1.1-.1.1-.2.1-.1.1-.1.3-.1.4-.2.1 0 .2 0 .3v.2c0 .1 0 .3.1.4.1.2.3.4.4.5.2.1.4.6.6.6.2 0 .4-.1.5-.1.2 0 .4 0 .6-.1.2-.1.1-.3.3-.5.1-.1.3 0 .4-.1.2-.1.3-.3.4-.5v-.2c0-.1.1-.2.1-.3 0-.1-.1-.1-.1-.2v-.3c0-.2 0-.4-.1-.5-.4-.7-1.2-.9-2-.8-.2 0-.3.1-.4.2-.2.1-.1.2-.3.2-.1 0-.2.1-.2.2v.3M61.8-33.4v.2c-.1.1-.1.1-.2.1-.1.1-.1.3-.1.4-.2.1 0 .2 0 .3v.2c0 .1 0 .3.1.4.1.2.3.4.4.5.2.1.4.6.6.6.2 0 .4-.1.5-.1.2 0 .4 0 .6-.1.2-.1.1-.3.3-.5.1-.1.3 0 .4-.1.2-.1.3-.3.4-.5v-.2c0-.1.1-.2.1-.3 0-.1-.1-.1-.1-.2v-.3c0-.2 0-.4-.1-.5-.4-.7-1.2-.9-2-.8-.2 0-.3.1-.4.2-.2.1-.1.2-.3.2-.1 0-.2.1-.2.2v.3M54.1-33.4v.2c-.1.1-.1.1-.2.1-.1.1-.1.3-.1.4-.2.1 0 .2 0 .3v.2c0 .1 0 .3.1.4.1.2.3.4.4.5.2.1.4.6.6.6.2 0 .4-.1.5-.1.2 0 .4 0 .6-.1.2-.1.1-.3.3-.5.1-.1.3 0 .4-.1.2-.1.3-.3.4-.5v-.2c0-.1.1-.2.1-.3 0-.1-.1-.1-.1-.2v-.3c0-.2 0-.4-.1-.5-.4-.7-1.2-.9-2-.8-.2 0-.3.1-.4.2-.2.1-.1.2-.3.2-.1 0-.2.1-.2.2v.3M46.5-33.4v.2c-.1.1-.1.1-.2.1-.1.1-.1.3-.1.4-.2.1 0 .2 0 .3v.2c0 .1 0 .3.1.4.1.2.3.4.4.5.2.1.4.6.6.6.2 0 .4-.1.5-.1.2 0 .4 0 .6-.1.2-.1.1-.3.3-.5.1-.1.3 0 .4-.1.2-.1.3-.3.4-.5v-.2c0-.1.1-.2.1-.3 0-.1-.1-.1-.1-.2v-.3c0-.2 0-.4-.1-.5-.4-.7-1.2-.9-2-.8-.2 0-.3.1-.4.2-.2.1-.1.2-.3.2-.1 0-.2.1-.2.2v.3M38.8-33.4v.2c-.1.1-.1.1-.2.1-.1.1-.1.3-.1.4-.2.1 0 .2 0 .3v.2c0 .1 0 .3.1.4.1.2.3.4.4.5.2.1.4.6.6.6.2 0 .4-.1.5-.1.2 0 .4 0 .6-.1.2-.1.1-.3.3-.5.1-.1.3 0 .4-.1.2-.1.3-.3.4-.5v-.2c0-.1.1-.2.1-.3 0-.1-.1-.1-.1-.2v-.3c0-.2 0-.4-.1-.5-.4-.7-1.2-.9-2-.8-.2 0-.3.1-.4.2-.2.1-.1.2-.3.2-.1 0-.2.1-.2.2v.3M31.1-33.4v.2c-.1.1-.1.1-.2.1-.1.1-.1.3-.1.4-.2.1 0 .2 0 .3v.2c0 .1 0 .3.1.4.1.2.3.4.4.5.2.1.4.6.6.6.2 0 .4-.1.5-.1.2 0 .4 0 .6-.1.2-.1.1-.3.3-.5.1-.1.3 0 .4-.1.2-.1.3-.3.4-.5v-.2c0-.1.1-.2.1-.3 0-.1-.1-.1-.1-.2v-.3c0-.2 0-.4-.1-.5-.4-.7-1.2-.9-2-.8-.2 0-.3.1-.4.2-.2.1-.1.2-.3.2-.1 0-.2.1-.2.2v.3M23.5-33.4v.2c-.1.1-.1.1-.2.1-.1.1-.1.3-.1.4-.2.1 0 .2 0 .3v.2c0 .1 0 .3.1.4.1.2.3.4.4.5.2.1.4.6.6.6.2 0 .4-.1.5-.1.2 0 .4 0 .6-.1.2-.1.1-.3.3-.5.1-.1.3 0 .4-.1.2-.1.3-.3.4-.5v-.2c0-.1.1-.2.1-.3 0-.1-.1-.1-.1-.2v-.3c0-.2 0-.4-.1-.5-.4-.7-1.2-.9-2-.8-.2 0-.3.1-.4.2-.2.1-.1.2-.3.2-.1 0-.2.1-.2.2v.3M15.8-33.4v.2c-.1.1-.1.1-.2.1-.1.1-.1.3-.1.4-.2.1 0 .2 0 .3v.2c0 .1 0 .3.1.4.1.2.3.4.4.5.2.1.4.6.6.6.2 0 .4-.1.5-.1.2 0 .4 0 .6-.1.2-.1.1-.3.3-.5.1-.1.3 0 .4-.1.2-.1.3-.3.4-.5v-.2c0-.1.1-.2.1-.3 0-.1-.1-.1-.1-.2v-.3c0-.2 0-.4-.1-.5-.4-.7-1.2-.9-2-.8-.2 0-.3.1-.4.2-.2.1-.1.2-.3.2-.1 0-.2.1-.2.2v.3M8.2-33.4v.2c-.1.1-.2.1-.2.1-.1.1-.1.3-.1.4-.2.1 0 .2 0 .3v.2c0 .1 0 .3.1.4.1.2.3.4.4.5.2.1.4.6.6.6.2 0 .4-.1.5-.1.2 0 .4 0 .6-.1.2-.1.1-.3.3-.5.1-.1.3 0 .4-.1.2-.1.3-.3.4-.5v-.2c0-.1.1-.2.1-.3 0-.1-.1-.1-.1-.2v-.3c0-.2 0-.4-.1-.5-.4-.7-1.2-.9-2-.8-.2 0-.3.1-.4.2-.2.1-.1.2-.3.2-.1 0-.2.1-.2.2v.3c-.1 0-.1 0 0 0M.5-33.4v.2c-.1.1-.1.1-.2.1-.1.1-.1.3-.1.4-.2.1 0 .2 0 .3v.2c0 .1 0 .3.1.4.1.2.3.4.4.5.2.1.4.6.6.6.2 0 .4-.1.5-.1.2 0 .4 0 .6-.1.2-.1.1-.3.3-.5.1-.1.3 0 .4-.1.2-.1.3-.3.4-.5v-.2c0-.1.1-.2.1-.3 0-.1-.1-.1-.1-.2v-.3c0-.2 0-.4-.1-.5-.4-.7-1.2-.9-2-.8-.2 0-.3.1-.4.2-.2.1-.1.2-.3.2-.1 0-.2.1-.2.2v.3"/></g><g><path class="st2" d="M69.4-25.7v.2c-.1.1-.1.1-.2.1-.1.1-.1.3-.1.4-.2.1 0 .2 0 .3v.2c0 .1 0 .3.1.4.1.2.3.4.4.5.2.1.4.6.6.6.2 0 .4-.1.5-.1.2 0 .4 0 .6-.1.2-.1.1-.3.3-.5.1-.1.3 0 .4-.1.2-.1.3-.3.4-.5v-.2c0-.1.1-.2.1-.3 0-.1-.1-.1-.1-.2v-.3c0-.2 0-.4-.1-.5-.4-.7-1.2-.9-2-.8-.2 0-.3.1-.4.2-.2.1-.1.2-.3.2-.1 0-.2.1-.2.2v.3M61.8-25.7v.2c-.1.1-.1.1-.2.1-.1.1-.1.3-.1.4-.2.1 0 .2 0 .3v.2c0 .1 0 .3.1.4.1.2.3.4.4.5.2.1.4.6.6.6.2 0 .4-.1.5-.1.2 0 .4 0 .6-.1.2-.1.1-.3.3-.5.1-.1.3 0 .4-.1.2-.1.3-.3.4-.5v-.2c0-.1.1-.2.1-.3 0-.1-.1-.1-.1-.2v-.3c0-.2 0-.4-.1-.5-.4-.7-1.2-.9-2-.8-.2 0-.3.1-.4.2-.2.1-.1.2-.3.2-.1 0-.2.1-.2.2v.3M54.1-25.7v.2c-.1.1-.1.1-.2.1-.1.1-.1.3-.1.4-.2.1 0 .2 0 .3v.2c0 .1 0 .3.1.4.1.2.3.4.4.5.2.1.4.6.6.6.2 0 .4-.1.5-.1.2 0 .4 0 .6-.1.2-.1.1-.3.3-.5.1-.1.3 0 .4-.1.2-.1.3-.3.4-.5v-.2c0-.1.1-.2.1-.3 0-.1-.1-.1-.1-.2v-.3c0-.2 0-.4-.1-.5-.4-.7-1.2-.9-2-.8-.2 0-.3.1-.4.2-.2.1-.1.2-.3.2-.1 0-.2.1-.2.2v.3M46.5-25.7v.2c-.1.1-.1.1-.2.1-.1.1-.1.3-.1.4-.2.1 0 .2 0 .3v.2c0 .1 0 .3.1.4.1.2.3.4.4.5.2.1.4.6.6.6.2 0 .4-.1.5-.1.2 0 .4 0 .6-.1.2-.1.1-.3.3-.5.1-.1.3 0 .4-.1.2-.1.3-.3.4-.5v-.2c0-.1.1-.2.1-.3 0-.1-.1-.1-.1-.2v-.3c0-.2 0-.4-.1-.5-.4-.7-1.2-.9-2-.8-.2 0-.3.1-.4.2-.2.1-.1.2-.3.2-.1 0-.2.1-.2.2v.3M38.8-25.7v.2c-.1.1-.1.1-.2.1-.1.1-.1.3-.1.4-.2.1 0 .2 0 .3v.2c0 .1 0 .3.1.4.1.2.3.4.4.5.2.1.4.6.6.6.2 0 .4-.1.5-.1.2 0 .4 0 .6-.1.2-.1.1-.3.3-.5.1-.1.3 0 .4-.1.2-.1.3-.3.4-.5v-.2c0-.1.1-.2.1-.3 0-.1-.1-.1-.1-.2v-.3c0-.2 0-.4-.1-.5-.4-.7-1.2-.9-2-.8-.2 0-.3.1-.4.2-.2.1-.1.2-.3.2-.1 0-.2.1-.2.2v.3M31.1-25.7v.2c-.1.1-.1.1-.2.1-.1.1-.1.3-.1.4-.2.1 0 .2 0 .3v.2c0 .1 0 .3.1.4.1.2.3.4.4.5.2.1.4.6.6.6.2 0 .4-.1.5-.1.2 0 .4 0 .6-.1.2-.1.1-.3.3-.5.1-.1.3 0 .4-.1.2-.1.3-.3.4-.5v-.2c0-.1.1-.2.1-.3 0-.1-.1-.1-.1-.2v-.3c0-.2 0-.4-.1-.5-.4-.7-1.2-.9-2-.8-.2 0-.3.1-.4.2-.2.1-.1.2-.3.2-.1 0-.2.1-.2.2v.3M23.5-25.7v.2c-.1.1-.1.1-.2.1-.1.1-.1.3-.1.4-.2.1 0 .2 0 .3v.2c0 .1 0 .3.1.4.1.2.3.4.4.5.2.1.4.6.6.6.2 0 .4-.1.5-.1.2 0 .4 0 .6-.1.2-.1.1-.3.3-.5.1-.1.3 0 .4-.1.2-.1.3-.3.4-.5v-.2c0-.1.1-.2.1-.3 0-.1-.1-.1-.1-.2v-.3c0-.2 0-.4-.1-.5-.4-.7-1.2-.9-2-.8-.2 0-.3.1-.4.2-.2.1-.1.2-.3.2-.1 0-.2.1-.2.2v.3M15.8-25.7v.2c-.1.1-.1.1-.2.1-.1.1-.1.3-.1.4-.2.1 0 .2 0 .3v.2c0 .1 0 .3.1.4.1.2.3.4.4.5.2.1.4.6.6.6.2 0 .4-.1.5-.1.2 0 .4 0 .6-.1.2-.1.1-.3.3-.5.1-.1.3 0 .4-.1.2-.1.3-.3.4-.5v-.2c0-.1.1-.2.1-.3 0-.1-.1-.1-.1-.2v-.3c0-.2 0-.4-.1-.5-.4-.7-1.2-.9-2-.8-.2 0-.3.1-.4.2-.2.1-.1.2-.3.2-.1 0-.2.1-.2.2v.3M8.2-25.7v.2c-.1.1-.2 0-.2.1-.1.1-.1.3-.1.4-.2.1 0 .2 0 .3v.2c0 .1 0 .3.1.4 0 .1.2.3.3.5.2.1.4.6.6.6.2 0 .4-.1.5-.1.2 0 .4 0 .6-.1.2-.1.1-.3.3-.5.1-.1.3 0 .4-.1.2-.1.3-.3.4-.5v-.2c0-.1.1-.2.1-.3 0-.1-.1-.1-.1-.2v-.3c0-.2 0-.4-.1-.5-.4-.7-1.2-.9-2-.8-.2 0-.3.1-.4.2-.2.1-.1.2-.3.2-.1 0-.2.1-.2.2.1.2.1.2.1.3-.1 0-.1 0 0 0M.5-25.7v.2c-.1.1-.1.1-.2.1-.1.1-.1.3-.1.4-.2.1 0 .2 0 .3v.2c0 .1 0 .3.1.4.1.2.3.4.4.5.2.1.3.5.6.6.2 0 .4-.1.5-.1.2 0 .4 0 .6-.1.2-.1.1-.3.3-.5.1-.1.3 0 .4-.1.2-.1.3-.3.4-.5v-.2c0-.1.1-.2.1-.3 0-.1-.1-.1-.1-.2v-.3c0-.2 0-.4-.1-.5-.4-.7-1.2-.9-2-.8-.2 0-.3.1-.4.2-.2.1-.1.2-.3.2-.1 0-.2.1-.2.2v.3"/></g><g><path class="st2" d="M69.4-18.1v.2c-.1.1-.1.1-.2.1-.1.1-.1.3-.1.4-.2.1 0 .2 0 .3v.2c0 .1 0 .3.1.4.1.2.3.4.4.5.2.1.4.6.6.6.2 0 .4-.1.5-.1.2 0 .4 0 .6-.1.2-.1.1-.3.3-.5.1-.1.3 0 .4-.1.2-.1.3-.3.4-.5v-.2c0-.1.1-.2.1-.3 0-.1-.1-.1-.1-.2v-.3c0-.2 0-.4-.1-.5-.4-.7-1.2-.9-2-.8-.2 0-.3.1-.4.2-.2.1-.1.2-.3.2-.1 0-.2.1-.2.2v.3c0 .1 0 0 0 0M61.8-18.1v.2c-.1.1-.1.1-.2.1-.1.1-.1.3-.1.4-.2.1 0 .2 0 .3v.2c0 .1 0 .3.1.4.1.2.3.4.4.5.2.1.4.6.6.6.2 0 .4-.1.5-.1.2 0 .4 0 .6-.1.2-.1.1-.3.3-.5.1-.1.3 0 .4-.1.2-.1.3-.3.4-.5v-.2c0-.1.1-.2.1-.3 0-.1-.1-.1-.1-.2v-.3c0-.2 0-.4-.1-.5-.4-.7-1.2-.9-2-.8-.2 0-.3.1-.4.2-.2.1-.1.2-.3.2-.1 0-.2.1-.2.2v.3c0 .1 0 0 0 0M54.1-18.1v.2c-.1.1-.1.1-.2.1-.1.1-.1.3-.1.4-.2.1 0 .2 0 .3v.2c0 .1 0 .3.1.4.1.2.3.4.4.5.2.1.4.6.6.6.2 0 .4-.1.5-.1.2 0 .4 0 .6-.1.2-.1.1-.3.3-.5.1-.1.3 0 .4-.1.2-.1.3-.3.4-.5v-.2c0-.1.1-.2.1-.3 0-.1-.1-.1-.1-.2v-.3c0-.2 0-.4-.1-.5-.4-.7-1.2-.9-2-.8-.2 0-.3.1-.4.2-.2.1-.1.2-.3.2-.1 0-.2.1-.2.2v.3c0 .1 0 0 0 0M46.5-18.1v.2c-.1.1-.1.1-.2.1-.1.1-.1.3-.1.4-.2.1 0 .2 0 .3v.2c0 .1 0 .3.1.4.1.2.3.4.4.5.2.1.4.6.6.6.2 0 .4-.1.5-.1.2 0 .4 0 .6-.1.2-.1.1-.3.3-.5.1-.1.3 0 .4-.1.2-.1.3-.3.4-.5v-.2c0-.1.1-.2.1-.3 0-.1-.1-.1-.1-.2v-.3c0-.2 0-.4-.1-.5-.4-.7-1.2-.9-2-.8-.2 0-.3.1-.4.2-.2.1-.1.2-.3.2-.1 0-.2.1-.2.2v.3c0 .1 0 0 0 0M38.8-18.1v.2c-.1.1-.1.1-.2.1-.1.1-.1.3-.1.4-.2.1 0 .2 0 .3v.2c0 .1 0 .3.1.4.1.2.3.4.4.5.2.1.4.6.6.6.2 0 .4-.1.5-.1.2 0 .4 0 .6-.1.2-.1.1-.3.3-.5.1-.1.3 0 .4-.1.2-.1.3-.3.4-.5v-.2c0-.1.1-.2.1-.3 0-.1-.1-.1-.1-.2v-.3c0-.2 0-.4-.1-.5-.4-.7-1.2-.9-2-.8-.2 0-.3.1-.4.2-.2.1-.1.2-.3.2-.1 0-.2.1-.2.2v.3c0 .1 0 0 0 0M31.1-18.1v.2c-.1.1-.1.1-.2.1-.1.1-.1.3-.1.4-.2.1 0 .2 0 .3v.2c0 .1 0 .3.1.4.1.2.3.4.4.5.2.1.4.6.6.6.2 0 .4-.1.5-.1.2 0 .4 0 .6-.1.2-.1.1-.3.3-.5.1-.1.3 0 .4-.1.2-.1.3-.3.4-.5v-.2c0-.1.1-.2.1-.3 0-.1-.1-.1-.1-.2v-.3c0-.2 0-.4-.1-.5-.4-.7-1.2-.9-2-.8-.2 0-.3.1-.4.2-.2.1-.1.2-.3.2-.1 0-.2.1-.2.2v.3c0 .1 0 0 0 0M23.5-18.1v.2c-.1.1-.1.1-.2.1-.1.1-.1.3-.1.4-.2.1 0 .2 0 .3v.2c0 .1 0 .3.1.4.1.2.3.4.4.5.2.1.4.6.6.6.2 0 .4-.1.5-.1.2 0 .4 0 .6-.1.2-.1.1-.3.3-.5.1-.1.3 0 .4-.1.2-.1.3-.3.4-.5v-.2c0-.1.1-.2.1-.3 0-.1-.1-.1-.1-.2v-.3c0-.2 0-.4-.1-.5-.4-.7-1.2-.9-2-.8-.2 0-.3.1-.4.2-.2.1-.1.2-.3.2-.1 0-.2.1-.2.2v.3c0 .1 0 0 0 0M15.8-18.1v.2c-.1.1-.1.1-.2.1-.1.1-.1.3-.1.4-.2.1 0 .2 0 .3v.2c0 .1 0 .3.1.4.1.2.3.4.4.5.2.1.4.6.6.6.2 0 .4-.1.5-.1.2 0 .4 0 .6-.1.2-.1.1-.3.3-.5.1-.1.3 0 .4-.1.2-.1.3-.3.4-.5v-.2c0-.1.1-.2.1-.3 0-.1-.1-.1-.1-.2v-.3c0-.2 0-.4-.1-.5-.4-.7-1.2-.9-2-.8-.2 0-.3.1-.4.2-.2.1-.1.2-.3.2-.1 0-.2.1-.2.2v.3c0 .1 0 0 0 0M8.2-18.1v.2c-.1.1-.2.1-.2.1-.1.1-.1.3-.1.4-.2.1 0 .2 0 .3v.2c0 .1 0 .3.1.4 0 .2.2.4.3.5.2.1.4.6.6.6.2 0 .4-.1.5-.1.2 0 .4 0 .6-.1.2-.1.1-.3.3-.5.1-.1.3 0 .4-.1.2-.1.3-.3.4-.5v-.2c0-.1.1-.2.1-.3 0-.1-.1-.1-.1-.2v-.3c0-.2 0-.4-.1-.5-.4-.7-1.2-.9-2-.8-.2 0-.3.1-.4.2-.2.1-.1.2-.3.2-.1 0-.2.1-.2.2.1.3.1.2.1.3-.1.1-.1 0 0 0M.5-18.1v.2c-.1.1-.1.1-.2.1-.1.1-.1.3-.1.4-.2.1 0 .2 0 .3v.2c0 .1 0 .3.1.4.1.2.3.4.4.5.2.1.4.6.6.6.2 0 .4-.1.5-.1.2 0 .4 0 .6-.1.2-.1.1-.3.3-.5.1 0 .3.1.4.1.2-.1.3-.3.4-.5v-.2c0-.1.1-.2.1-.3 0-.1-.1-.1-.1-.2v-.3c0-.2 0-.4-.1-.5-.4-.7-1.2-.9-2-.8-.2 0-.3.1-.4.2-.2.1-.1.2-.3.2-.1 0-.2.1-.2.2v.1c0 .1 0 0 0 0"/></g><g><path class="st2" d="M69.4-10.4v.2c-.1.1-.1.1-.2.1-.1.1-.1.3-.1.4-.2.1 0 .2 0 .3v.2c0 .1 0 .3.1.4.1.2.3.4.4.5.2.1.4.6.6.6.2 0 .4-.1.5-.1.2 0 .4 0 .6-.1.2-.1.1-.3.3-.5.1-.1.3 0 .4-.1.2-.1.3-.3.4-.5v-.2c0-.1.1-.2.1-.3 0-.1-.1-.1-.1-.2v-.3c0-.2 0-.4-.1-.5-.4-.7-1.2-.9-2-.8-.2 0-.3.1-.4.2-.2.1-.1.2-.3.2-.1 0-.2.1-.2.2v.3M61.8-10.4v.2c-.1.1-.1.1-.2.1-.1.1-.1.3-.1.4-.2.1 0 .2 0 .3v.2c0 .1 0 .3.1.4.1.2.3.4.4.5.2.1.4.6.6.6.2 0 .4-.1.5-.1.2 0 .4 0 .6-.1.2-.1.1-.3.3-.4.1-.1.3 0 .4-.1.2-.1.3-.3.4-.5v-.2c0-.1.1-.2.1-.3 0-.1-.1-.1-.1-.2v-.3c0-.2 0-.4-.1-.5-.4-.7-1.2-.9-2-.8-.2 0-.3.1-.4.2-.2.1-.1.2-.3.2-.1 0-.2.1-.2.2v.2M54.1-10.4v.2c-.1.1-.1.1-.2.1-.1.1-.1.3-.1.4-.2.1 0 .2 0 .3v.2c0 .1 0 .3.1.4.1.2.3.4.4.5.2.1.4.6.6.6.2 0 .4-.1.5-.1.2 0 .4 0 .6-.1.2-.1.1-.3.3-.5.1-.1.3 0 .4-.1.2-.1.3-.3.4-.5v-.2c0-.1.1-.2.1-.3 0-.1-.1-.1-.1-.2v-.3c0-.2 0-.4-.1-.5-.4-.7-1.2-.9-2-.8-.2 0-.3.1-.4.2-.2.1-.1.2-.3.2-.1 0-.2.1-.2.2v.3M46.5-10.4v.2c-.1.1-.1.1-.2.1-.1.1-.1.3-.1.4-.2.1 0 .2 0 .3v.2c0 .1 0 .3.1.4.1.2.3.4.4.5.2.1.4.6.6.6.2 0 .4-.1.5-.1.2 0 .4 0 .6-.1.2-.1.1-.3.3-.5.1-.1.3 0 .4-.1.2-.1.3-.3.4-.5v-.2c0-.1.1-.2.1-.3 0-.1-.1-.1-.1-.2v-.3c0-.2 0-.4-.1-.5-.4-.7-1.2-.9-2-.8-.2 0-.3.1-.4.2-.2.1-.1.2-.3.2-.1 0-.2.1-.2.2v.3M38.8-10.4v.2c-.1.1-.1.1-.2.1-.1.1-.1.3-.1.4-.2.1 0 .2 0 .3v.2c0 .1 0 .3.1.4.1.2.3.4.4.5.2.1.4.6.6.6.2 0 .4-.1.5-.1.2 0 .4 0 .6-.1.2-.1.1-.3.3-.4.1-.1.3 0 .4-.1.2-.1.3-.3.4-.5v-.2c0-.1.1-.2.1-.3 0-.1-.1-.1-.1-.2v-.3c0-.2 0-.4-.1-.5-.4-.7-1.2-.9-2-.8-.2 0-.3.1-.4.2-.2.1-.1.2-.3.2-.1 0-.2.1-.2.2v.2M31.1-10.4v.2c-.1.1-.1.1-.2.1-.1.1-.1.3-.1.4-.2.1 0 .2 0 .3v.2c0 .1 0 .3.1.4.1.2.3.4.4.5.2.1.4.6.6.6.2 0 .4-.1.5-.1.2 0 .4 0 .6-.1.2-.1.1-.3.3-.5.1-.1.3 0 .4-.1.2-.1.3-.3.4-.5v-.2c0-.1.1-.2.1-.3 0-.1-.1-.1-.1-.2v-.3c0-.2 0-.4-.1-.5-.4-.7-1.2-.9-2-.8-.2 0-.3.1-.4.2-.2.1-.1.2-.3.2-.1 0-.2.1-.2.2v.3M23.5-10.4v.2c-.1.1-.1.1-.2.1-.1.1-.1.3-.1.4-.2.1 0 .2 0 .3v.2c0 .1 0 .3.1.4.1.2.3.4.4.5.2.1.4.6.6.6.2 0 .4-.1.5-.1.2 0 .4 0 .6-.1.2-.1.1-.3.3-.5.1-.1.3 0 .4-.1.2-.1.3-.3.4-.5v-.2c0-.1.1-.2.1-.3 0-.1-.1-.1-.1-.2v-.3c0-.2 0-.4-.1-.5-.4-.7-1.2-.9-2-.8-.2 0-.3.1-.4.2-.2.1-.1.2-.3.2-.1 0-.2.1-.2.2v.3M15.8-10.4v.2c-.1.1-.1.1-.2.1-.1.1-.1.3-.1.4-.2.1 0 .2 0 .3v.2c0 .1 0 .3.1.4.1.2.3.4.4.5.2.1.4.6.6.6.2 0 .4-.1.5-.1.2 0 .4 0 .6-.1.2-.1.1-.3.3-.4.1-.1.3 0 .4-.1.2-.1.3-.3.4-.5v-.2c0-.1.1-.2.1-.3 0-.1-.1-.1-.1-.2v-.3c0-.2 0-.4-.1-.5-.4-.7-1.2-.9-2-.8-.2 0-.3.1-.4.2-.2.1-.1.2-.3.2-.1 0-.2.1-.2.2v.2M8.2-10.4v.2c-.1.1-.2 0-.2.1-.1.1-.1.3-.1.3-.2.1 0 .2 0 .3v.2c0 .1 0 .3.1.4 0 .2.2.4.3.6.2.1.4.6.6.6.2 0 .4-.1.5-.1.2 0 .4 0 .6-.1.2-.1.1-.3.3-.5.1-.1.3 0 .4-.1.2-.1.3-.3.4-.5v-.2c0-.1.1-.2.1-.3 0-.1-.1-.1-.1-.2v-.3c0-.2 0-.4-.1-.5-.4-.7-1.2-.9-2-.8-.2 0-.3.1-.4.2-.2.1-.1.2-.3.2-.1 0-.2.1-.2.2.1.2.1.2.1.3-.1 0-.1 0 0 0M.5-10.4v.2c-.1.1-.1.1-.2.1 0 .1-.1.3-.1.3-.2.1 0 .2 0 .3v.2c0 .1 0 .3.1.4.1.2.3.4.4.5.2.2.3.6.6.7.2 0 .4-.1.5-.1.2 0 .4 0 .6-.1.2-.1.1-.3.3-.4.1-.1.3 0 .4-.1.2-.1.3-.3.4-.5v-.2c0-.1.1-.2.1-.3 0-.1-.1-.1-.1-.2v-.3c0-.2 0-.4-.1-.5-.4-.7-1.2-.9-2-.8-.2 0-.3.1-.4.2-.2.1-.1.2-.3.2-.1 0-.2.1-.2.2v.2"/></g></g><g><path class="st2" d="M69.4-2.8v.2c-.1.1-.1.1-.2.1-.1.1-.1.3-.1.4-.2.1 0 .2 0 .3v.2c0 .1 0 .3.1.4.1.2.3.4.4.5.2.2.4.6.6.7.2 0 .4-.1.5-.1.2 0 .4 0 .6-.1.2-.1.1-.3.3-.5.1-.1.3 0 .4-.1.2-.1.3-.3.4-.5v-.2c0-.1.1-.2.1-.3 0-.1-.1-.1-.1-.2v-.3c0-.2 0-.4-.1-.5-.4-.7-1.2-.9-2-.8-.2 0-.3.1-.4.2-.2.1-.1.2-.3.2-.1 0-.2.1-.2.2v.2c0 .1 0 0 0 0M61.8-2.8v.2c-.1.1-.1.1-.2.1-.1.1-.1.3-.1.4-.2.1 0 .2 0 .3v.2c0 .1 0 .3.1.4 0 .2.2.4.4.5.2.1.4.6.6.6.2 0 .4-.1.5-.1.2 0 .4 0 .6-.1.2-.1.1-.3.3-.5.1-.1.3 0 .4-.1.2-.1.3-.3.4-.5v-.2c0-.1.1-.2.1-.3 0-.1-.1-.1-.1-.2v-.3c0-.2 0-.4-.1-.5-.4-.7-1.2-.9-2-.8-.2 0-.3.1-.4.2-.2.1-.1.2-.3.2-.1 0-.2.1-.2.2v.3c0 .1 0 0 0 0M54.1-2.8v.2c-.1.1-.1.1-.2.1-.1.1-.1.3-.1.4-.2.1 0 .2 0 .3v.2c0 .1 0 .3.1.4.1.2.2.4.4.5.2.1.4.6.6.6.2 0 .4-.1.5-.1.2 0 .4 0 .6-.1.2-.1.1-.3.3-.5.1-.1.3 0 .4-.1.2.1.3-.1.4-.3v-.2c0-.1.1-.2.1-.3 0-.1-.1-.1-.1-.2v-.3c0-.2 0-.4-.1-.5-.4-.7-1.2-.9-2-.8-.2 0-.3.1-.4.2-.2.1-.1.2-.3.2-.1 0-.2.1-.2.2v.1c0 .1 0 0 0 0M46.5-2.8v.2c-.1.1-.1.1-.2.1-.1.1-.1.3-.1.4-.2.1 0 .2 0 .3v.2c0 .1 0 .3.1.4.1.2.3.4.4.5.1.2.3.6.5.7.2 0 .4-.1.5-.1.2 0 .4 0 .6-.1.2-.1.1-.3.3-.5.1-.1.3 0 .4-.1.2-.1.3-.3.4-.5v-.2c0-.1.1-.2.1-.3 0-.1-.1-.1-.1-.2v-.3c0-.2 0-.4-.1-.5-.4-.7-1.2-.9-2-.8-.2 0-.3.1-.4.2-.2.1-.1.2-.3.2-.1 0-.2.1-.2.2.1.2.1.1.1.2M38.8-2.8v.2c-.1.1-.1.1-.2.1-.1.1-.1.3-.1.4-.2.1 0 .2 0 .3v.2c0 .1 0 .3.1.4 0 .2.2.4.4.5.2.1.4.6.6.6.2 0 .4-.1.5-.1.2 0 .4 0 .6-.1.2-.1.1-.3.3-.5.1-.1.3 0 .4-.1.2-.1.3-.3.4-.5v-.2c0-.1.1-.2.1-.3 0-.1-.1-.1-.1-.2v-.3c0-.2 0-.4-.1-.5-.4-.7-1.2-.9-2-.8-.2 0-.3.1-.4.2-.2.1-.1.2-.3.2-.1 0-.2.1-.2.2v.3c0 .1 0 0 0 0M31.1-2.8v.2c-.1.1-.1.1-.2.1-.1.1-.1.3-.1.4-.2.1 0 .2 0 .3v.2c0 .1 0 .3.1.4.1.2.2.4.4.5.2.1.4.6.6.6.2 0 .4-.1.5-.1.2 0 .4 0 .6-.1.2-.1.1-.3.3-.5.1-.1.3 0 .4-.1.2-.1.3-.3.4-.5v-.2c0-.1.1-.2.1-.3 0-.1-.1-.1-.1-.2v-.3c0-.2 0-.4-.1-.5-.4-.7-1.2-.9-2-.8-.2 0-.3.1-.4.2-.2.1-.1.2-.3.2-.1 0-.2.1-.2.2v.3c0 .1 0 0 0 0M23.5-2.8v.2c-.1.1-.1.1-.2.1-.1.1-.1.3-.1.4-.2.1 0 .2 0 .3v.2c0 .1 0 .3.1.4.1.2.3.4.4.5.1.2.3.6.6.7.2 0 .4-.1.5-.1.2 0 .4 0 .6-.1.2-.1.1-.3.3-.5.1-.1.3 0 .4-.1.2-.1.3-.3.4-.5v-.2c0-.1.1-.2.1-.3 0-.1-.1-.1-.1-.2v-.3c0-.2 0-.4-.1-.5-.4-.7-1.2-.9-2-.8-.2 0-.3.1-.4.2-.2.1-.1.2-.3.2-.1 0-.2.1-.2.2v.2c0 .1 0 0 0 0M15.8-2.8v.2c-.1.1-.1.1-.2.1-.1.1-.1.3-.1.4-.2.1 0 .2 0 .3v.2c0 .1 0 .3.1.4.1.2.2.4.4.5.2.1.4.6.6.6.2 0 .4-.1.5-.1.2 0 .4 0 .6-.1.2-.1.1-.3.3-.5.1-.1.3 0 .4-.1.2-.1.3-.3.4-.5v-.2c0-.1.1-.2.1-.3 0-.1-.1-.1-.1-.2v-.3c0-.2 0-.4-.1-.5-.4-.7-1.2-.9-2-.8-.2 0-.3.1-.4.2-.2.1-.1.2-.3.2-.1 0-.2.1-.2.2v.3c0 .1 0 0 0 0M8.2-2.8v.2c-.1.1-.2.1-.2.1-.1.1-.1.3-.1.4-.2.1 0 .2 0 .3v.2c0 .1 0 .3.1.4 0 .2.2.4.3.5.2.2.4.6.6.7.2 0 .4-.1.5-.1.2 0 .4 0 .6-.1.2-.1.1-.3.3-.5.1-.1.3 0 .4-.1.2-.1.3-.3.4-.5v-.2c0-.1.1-.2.1-.3 0-.1-.1-.1-.1-.2v-.3c0-.2 0-.4-.1-.5-.4-.7-1.2-.9-2-.8 0 .1-.2.2-.3.2-.2.1-.1.2-.3.3-.1 0-.2.1-.2.2v.1c-.1.1-.1 0 0 0M.5-2.8v.2c-.1.1-.1.1-.2.1 0 .1-.1.3-.1.4-.2.1 0 .2 0 .3v.2c0 .1 0 .3.1.4 0 .2.2.4.4.5.2.2.3.6.6.7.2 0 .4-.1.5-.1.2 0 .4 0 .6-.1.2-.1.1-.3.3-.5.1-.1.3 0 .4-.1.2 0 .3-.2.4-.4v-.2c0-.1.1-.2.1-.3 0-.1-.1-.1-.1-.2v-.3c0-.2 0-.4-.1-.5-.4-.7-1.2-.9-2-.8-.1 0-.2.1-.4.1-.1.1-.1.2-.3.3-.1 0-.2.1-.2.2v.1c0 .1 0 0 0 0"/></g></pattern><path class="st0" d="M0 0h336v508.5H0z"/><path class="st2" d="M122.3 338.4c-2.8 0-4.1 1.8-4.9 4.6-.7 2.8-.7 6.5-.7 10.1 0 3.6 0 7.3.7 10.1s2.1 4.6 4.9 4.6c2.8 0 4.1-1.8 4.9-4.6.7-2.8.7-6.5.7-10.1 0-3.6 0-7.3-.7-10.1-.8-2.8-2.1-4.6-4.9-4.6zm28.8 102c-2.6 0-3.8 1.7-4.5 4.3-.7 2.6-.7 6.1-.7 9.4 0 3.3 0 6.8.7 9.4.7 2.6 1.9 4.3 4.5 4.3s3.8-1.7 4.5-4.3c.7-2.6.7-6.1.7-9.4 0-3.3 0-6.8-.7-9.4-.7-2.6-1.9-4.3-4.5-4.3zm143.5-77.1c1.1-2.4 1.4-5.9 1.4-10.1 0-4.3-.3-7.8-1.4-10.1-1.1-2.4-2.7-3.6-5.6-3.7h-2.9v27.5h2.9c2.9 0 4.6-1.3 5.6-3.6zm-42.7-11.7c4.3-.1 5.9-1 6-6.1-.1-5-1.7-6.1-6-6.2h-1.1v12.3h1.1zm-118.6-10.2c2.4 3 3.6 7.1 3.6 11.7s-1.1 8.8-3.6 11.7c-2.4 3-6.1 4.8-11.1 4.8s-8.7-1.8-11.1-4.8c-2.4-3-3.6-7.1-3.6-11.7 0-4.7 1.1-8.8 3.6-11.7 2.4-3 6.1-4.8 11.1-4.8s8.7 1.8 11.1 4.8zm16.5 25.8h-.9c-1.1-.1-1.7-.2-1.8-1.4 0-.9 2-3.9 3.7-6.4l2.2-3.2 2.4 4c1.5 2.5 3.2 5.3 3.2 6.1 0 .3-.2.5-.6.7-.4.2-.9.2-1.3.2H155.8v1.8h16.8v-1.8h-.7c-2 0-3.1-1.3-7.1-7.9l-5.3-8.9 5.5-8c1.4-2.1 3.4-3.4 4.6-3.3h.5v-1.8h-9.8v1.8h.9c.4 0 .8.1 1.2.3.3.2.6.5.6.8 0 .7-.7 2.3-1.7 3.7l-2.9 4.3-1.8-2.9c-1.4-2.2-2.9-4.9-2.8-5.5 0-.2.2-.4.5-.6.3-.1.8-.2 1.2-.2H156.4v-1.8h-15.9v1.7h1c1.2 0 1 .1 2 1.4 1 1.4 1.9 3 2.7 4.5l5.6 9.3-6.3 9c-1.2 1.7-3.1 4-4.6 4h-.7v1.8h9.6v-1.7zm26-28.1h.9c1.2 0 1.6.1 1.9.8.3.7.3 2.1.3 4.7v17.1c0 2.6 0 4-.3 4.7-.3.7-.7.8-1.9.8H175.8v1.7h14.8v-1.8h-.9c-1.2 0-1.6-.1-1.9-.8-.3-.7-.3-2.1-.3-4.7v-7.5h2.5c3 0 5 .5 5.3 4.6v.2h2.1v-11.7h-2v.2c-.4 4.4-2.4 4.6-5.3 4.6h-2.5v-12.8h3.1c4.7.1 6.6.8 7.4 5.7v.2h2.4v-8h-24.6v2zm58.6 14c0 4.6-1.1 8.8-3.6 11.7-2.4 3-6.1 4.8-11 4.8-5 0-8.7-1.8-11.1-4.8-2.4-3-3.6-7.1-3.6-11.7 0-4.7 1.1-8.8 3.6-11.7 2.4-3 6.1-4.8 11.1-4.8s8.7 1.8 11.1 4.8c2.3 3 3.4 7.1 3.5 11.7zm-20.3 0c0 3.6 0 7.3.7 10.1s2.1 4.6 4.9 4.6c2.8 0 4.1-1.8 4.9-4.6.7-2.8.7-6.5.7-10.1 0-3.6 0-7.3-.7-10.1s-2.1-4.6-4.9-4.6c-2.8 0-4.1 1.8-4.9 4.6-.7 2.8-.7 6.6-.7 10.1zm39.8 15.8h-14.8v-1.7H240c1.2 0 1.6-.1 1.9-.8.3-.7.3-2.1.3-4.7v-17.1c0-2.6 0-4-.3-4.7-.3-.7-.7-.8-1.9-.8h-.9v-1.8h14.7c3.9 0 12.7.1 12.7 7.8 0 3.6-3.1 6.1-6.2 7 5.8 1 6.3 5.7 6.2 10.2v1.8c0 1 0 1.8.2 2.3.2.5.3.6.7.7.3 0 1.2-.8 1.9-1.7l.1-.2 1.4 1.1-.2.2c-1.7 2.2-3.6 3.1-6.4 3.1-5.4 0-6.4-5-6.4-9.3-.1-5-.2-6.7-3.6-6.7h-3.5v8.1c0 2.6 0 4 .3 4.7.3.7.7.8 1.9.8h.9v1.7zm37.1 0h-16.5v-1.7H275.4c1.2 0 1.6-.1 1.9-.8.3-.7.3-2.1.3-4.7v-17.1c0-2.6 0-4-.3-4.7-.3-.7-.7-.8-1.9-.8h-.9v-1.8H291c4 0 7.5 1.4 10 4.1 2.5 2.7 4 6.6 4 11.7s-1.5 9-4 11.7c-2.5 2.7-6 4.1-10 4.1zm-117.2 50.3l.1.2h2.2v-9.6h-2.4v.2c-.5 4.1-2.7 7.6-7.2 7.6-3.2 0-4.8-2.3-5.6-5.3-.9-2.9-.9-6.4-.9-8.6 0-4.3.4-8.2 1.4-10.9 1-2.7 2.6-4.3 5.2-4.3 4.1 0 6.3 3.6 7.1 7.4v.2h2v-9.4h-1.8v.2c0 .4-.5.7-.9.8h-.1c-.6 0-3.3-1.3-6.9-1.3-4.9 0-8.7 1.7-11.3 4.6-2.5 2.9-3.8 7-3.8 11.7 0 4.9 1.3 9.1 3.8 12 2.6 3 6.4 4.7 11.5 4.7 2.9 0 5.7-1.1 6.6-1 .4.1.8.4 1 .8zm8.8-2.1H181.7v1.7h14.8V417h-.9c-1.2 0-1.6-.1-1.9-.8-.3-.7-.3-2.1-.3-4.7v-17.1c0-2.5 0-4 .3-4.7.3-.7.7-.8 1.9-.8H196.5v-1.8h-14.8v1.8h.9c1.2 0 1.6.1 1.9.8.3.7.3 2.1.3 4.7v17.1c0 2.5 0 4-.3 4.7-.3.8-.7.9-1.9.9zm18.4-29.6v8.7h2.4v-.2c.4-4.3 2.5-6.7 6.1-6.7h1.7v22.3c0 2.6 0 4-.3 4.7-.3.7-.7.8-1.9.8H208.1v1.8h14.8v-1.8h-.9c-1.2 0-1.6-.1-1.9-.8-.3-.7-.3-2.1-.3-4.7v-22.3h1.7c4 0 5.6 2.9 6.1 6.7v.2h2.4v-8.9h-29v.2zm62.9 1.5h.2v-1.8h-9.8v1.8h1.1c1.4.1 2 .2 2 1.8 0 .8-.2 1.7-1.7 4.7l-3.8 7.8-4.9-10.2c-.7-1.6-1-2.1-1-2.8 0-.5.2-.8.7-1 .4-.2 1-.2 1.6-.2h.8v-1.8h-16.4v1.8h.7c1.2 0 2.3.5 4.1 4.1l6.7 13.7v8.5c0 1.6-.8 1.7-2.2 1.8H241.1v1.8h15v-1.8H255c-1.6 0-2.2-.1-2.2-1.3v-9.5l7-13.7c1.3-2.5 2.2-3.6 3.4-3.6h.7zM130 460.4c-.5 3.8-2.5 7.1-6.7 7.1-2.9 0-4.4-2.1-5.2-4.9-.8-2.7-.8-6-.8-8 0-4 .3-7.6 1.3-10.1s2.4-3.9 4.9-4c3.8 0 5.8 3.4 6.5 6.9v.2h1.9V439h-1.7v.2c0 .3-.4.7-.8.7-.6 0-3.1-1.2-6.4-1.2-4.6 0-8.1 1.6-10.5 4.3-2.4 2.7-3.6 6.5-3.6 10.9 0 4.5 1.2 8.4 3.6 11.2 2.4 2.8 6 4.4 10.7 4.4 2.7 0 5.3-1 6.2-1 .3 0 .7.3.8.6l.1.1h2.1v-9H130v.2zm31.4-17.2c2.2 2.8 3.3 6.6 3.3 10.9 0 4.3-1.1 8.2-3.3 10.9-2.2 2.8-5.7 4.4-10.3 4.4-4.6 0-8-1.7-10.3-4.4-2.2-2.8-3.3-6.6-3.3-10.9 0-4.3 1.1-8.1 3.3-10.9 2.2-2.8 5.7-4.4 10.3-4.4 4.6 0 8 1.6 10.3 4.4zm27.4-2.1h.2c1.4 0 2 0 2.5.9.5 1 .6 3 .6 7.1v8.4c0 4.2-1.1 9.4-6.6 9.4-5 0-5.8-3.1-5.9-6.2v-17.2c.1-2.3.3-2.3 2.7-2.3h.2v-1.7h-13.9v1.7h.2c1.5 0 2 .2 2.3.9.3.7.3 2.1.3 4.3v13.4c0 5.6 4.1 9.7 11 9.7 3.9 0 6.8-.9 8.8-2.9 2-2 3-5 3-8.9v-10.1c0-3 .1-4.6.5-5.4.4-.8 1-.9 2.3-.9h.2V439.7h-8.7v1.4zm32.4 0h.8c1.3 0 1.9.7 2.2 1.7.3 1 .4 2.3.4 3.2v13.5l-6.2-9.6c-2.2-3.4-4.5-6.8-6.3-10.4l-.1-.1h-10.8v1.7h.9c1.1 0 1.5.1 1.8.7.3.6.3 2 .3 4.3v16c0 1 0 2.2-.4 3.2s-.9 1.7-2.2 1.7h-.2v1.7h8.5V467h-.8c-1.3 0-1.9-.7-2.2-1.7-.3-1-.4-2.3-.4-3.2V446l15.1 23.1h5.5V446c0-1 0-2.2.4-3.2s.9-1.7 2.2-1.7h.2v-1.7h-8.5v1.7zm34.2 19.3c-.5 3.8-2.5 7.1-6.6 7.1-2.9 0-4.4-2.1-5.2-4.9-.8-2.7-.8-6-.8-8 0-4 .3-7.6 1.3-10.1s2.4-3.9 4.9-4c3.8 0 5.8 3.4 6.5 6.9v.2h1.9V439h-1.7v.2c0 .3-.4.7-.8.7-.3 0-1.1-.3-2.2-.6s-2.6-.6-4.2-.6c-4.6 0-8.1 1.6-10.5 4.3-2.4 2.7-3.6 6.5-3.6 10.9 0 4.5 1.2 8.4 3.6 11.2 2.4 2.8 6 4.4 10.7 4.4 2.7 0 5.3-1 6.2-1 .3 0 .7.3.8.6l.1.1h2.1v-9h-2.3l-.2.2zm7.4-19.3h.9c1.1 0 1.5.1 1.8.7.3.6.3 2 .3 4.3V462c0 2.4 0 3.7-.3 4.3-.2.6-.6.7-1.8.7H262.8V468.6h13.8v-1.7h-.9c-1.1 0-1.5-.1-1.8-.7-.3-.6-.3-2-.3-4.3V446c0-2.4 0-3.7.3-4.3.2-.6.6-.7 1.8-.7h.8v-1.7h-13.8v1.8zm39.8 19.6c-.2 4.7-2.8 6.1-7.2 6.2H292v-20.7c0-2.4 0-3.7.3-4.3.2-.6.6-.7 1.8-.7h.8v-1.7h-13.8v1.7h.9c1.1 0 1.5.1 1.8.7.3.6.3 2 .3 4.3v15.9c0 2.4 0 3.7-.3 4.3-.2.6-.6.7-1.8.7h-.8V468.7H305v-8.3h-2.3l-.1.3zM253 242.5zm2-4.6c2.8-4.1 5.8-4.5 6.7-4.5h.1l1-2.1.6-1.5c-2.2-2.3-2.4-4.1-2.6-4.7l-.1-.2h-.8c-1.5 0-4.5-.2-6-.5-1.2-.3-1.9-.5-2.2-.7-2.9 4-8.9 5.7-10 5.9v1.1c0 4.5.6 6.3 1.1 7l.1.1c.1.2.2.3.4.4.2.1.5.2.5.6 0 .1 0 .2-.1.3-1 2.7-5.7 2.9-8.1 2.9h-1.4c-.1.2-.4.6-.4 1.2 0 .2 0 .4.1.7.5 1.2.7 2.5.7 3.8 0 1.9-.5 3.7-.8 4.7 3.4-.9 7.3-3.5 7.5-3.6 1-.6 9.4-6 11.4-6.6.4-1.8 1.2-3 2-4.1l.3-.2zm-104.4-13zM278.4 277s-3.9-3.1-4.7-3.7c-.7-.5-3.5-2.6-6.8-4.6-2.5-1.6-3.7-1.9-5.3-2h-.7c-2.5 0-6 .7-12.3 4.3-1.3.8-5.9 3.8-6.9 4.5-2.1 1.4-6 3.9-7.7 4h-.3c-1.2 0-3.6-.7-8.4-4.5l-1.2-1c-6.4-5.3-9.5-7.2-13.7-7.3h-.1c-1.6 0-5.8 1.2-8.3 2.3-4.3 1.9-7.6 3.4-11.3 5.5l-2.7 1.6c-1.2.8-4.7 2.6-6 2.6-2.2 0-3.8-1.2-7.8-4.3l-.9-.7c-3.8-3.1-9.1-7.4-14.3-7.7h-.6c-5.1 0-10.3 3.1-12 4.1-1.3.7-3.7 2.2-4.4 2.6-.7.4-6.8 4.4-12.6 9.2l-.1.1v16.7l.4-.4c.8-.7 5.2-5.6 16.2-12.7l1.7-1.1c6.7-3.6 9.2-4 10.3-4h.6c.5 0 3.5.4 7.8 3.5 1.5 1.1 4.3 3.6 5.4 4.6.9.7 5 4 6.6 4.6 1.3.5 2.4.7 3.4.7 1.7 0 3-.6 4.4-1.2 1.5-.7 5.5-3.2 6.7-3.9l3.9-2.3c.7-.3 5.6-2.8 6.5-3.1 2.7-1 4.4-1.4 5.7-1.4.4 0 .8 0 1.3.1 1.4.2 3.4.7 9.7 5.4 0 0 6.6 5.3 8.6 6.5 1.7 1.1 3.2 1.3 3.9 1.3h.2c4.2-.6 14.3-7.4 14.3-7.4s2.7-2.2 8.1-4.3c2-.8 4.5-1 6.1-1 .6 0 1 0 1.3.1 2.5.3 5.3 2 8.9 4.7 0 0 1.5 1.1 2.3 1.7.8.7 5.8 4.9 9.6 8.4l.4.4v-16.4l-.1-.1c-1.4-1.2-4-3.5-5.1-4.4zm-4.2 23.5c-.8-.7-2.8-2.3-2.8-2.3-3.6-2.7-6.5-4.5-9.2-4.8-.3 0-.8-.1-1.3-.1-1.6 0-4.2.2-6.3 1-5.4 2.1-8.2 4.4-8.2 4.4s-2.5 1.7-5.6 3.5c-3 1.8-6.6 3.6-8.5 3.9h-.1c-.5 0-2-.2-3.6-1.2-1.9-1.2-8.6-6.5-8.6-6.5-6.3-4.7-8.5-5.3-9.9-5.5-.4-.1-.9-.1-1.3-.1-1.5 0-3.2.4-5.9 1.4-.9.4-6.1 3-6.5 3.1l-4 2.4c-1.1.7-5.2 3.2-6.6 3.9-1.4.6-2.6 1.1-4.2 1.1-.9 0-2-.2-3.2-.7-1.4-.5-5.6-3.8-6.4-4.5-1.1-.9-3.9-3.5-5.4-4.6-4.3-3.2-7.4-3.6-8-3.6h-.6c-1.2 0-3.8.4-10.6 4l-1.7 1.1c-11 7.1-15.5 12.1-16.2 12.7l-.1.1v.1l-.1 17.1.4-.4c.8-.7 5.2-5.6 16.2-12.7l1.7-1.1c6.7-3.6 9.2-4 10.3-4h.6c.5 0 3.5.4 7.8 3.5 1.5 1.1 4.3 3.6 5.4 4.6.9.7 5 4 6.6 4.6 1.3.5 2.4.7 3.4.7 1.7 0 3-.6 4.4-1.2 1.5-.7 5.5-3.2 6.7-3.9l3.9-2.3c.7-.2 5.6-2.8 6.5-3.1 2.7-1 4.4-1.4 5.7-1.4.4 0 .8 0 1.3.1 1.3.2 3.7 1.3 6.6 3.6 0 0 2.1 1.6 3.7 2.9 2.2 1.7 8.1 6.6 12.4 6.6h.5c3.9-.4 13.5-6.5 13.5-6.5l5.4-3.2c3.7-2.1 7.7-2.8 8.9-2.8h.4c2.5 0 4.3.6 11.1 6.3l1.6 1.4c.7.6 4.1 3.2 9.1 7.9l.4.4v-16.8l-.1-.1c-3.5-3.8-8.3-7.9-9.5-9zM163.3 162.7c-1.3-.3-3.6-.5-5.2-.5h-.1c-2.6 0-4.4.7-5.3 2.5-.3.5-.5.9-.5 1.4 0 .4.1.8.4 1.2.4.7 1.1 1.5 1.7 2 .2.1.3.1.5.2.1 0 .1 0 .2.1 0 .1.2 1.7.2 2v.2h.5l.2.1.2-.1c.3-.3 1.3-1.1 1.5-1.5.1-.2.1-.4.1-.6v-.3-.3c.1-.3.4-1.1.6-1.3.1-.2.6-.4.9-.7.3-.3.9-1 .9-1s2.5-1.9 3.1-2.4c.1-.1.2-.3.2-.4v-.1l.4-.3-.5-.2zm55.9-23.1c1.1 1.7 2.4 3.2 2.4 3.2.5.6 1.4 1.9 1.4 1.9.5.9 1.4 2 1.6 3 .1.4.1.8.1 1.3 0 1.3-.2 2.7-.2 3.7 0 0-.2 3.4-.2 4.6v1c0 1 .1 2.2.2 3.2l.5 4.1c.4 2.5.9 5 1.6 7.3.4 1.3 1.1 4.7 4.6 8.8 3.5 4.1 6.9 5.8 6.9 5.8 3.6 2.2 7.6 3.6 12.8 4.1 0 0 1.1.2 2.4.2.7 0 1.4.1 2.2.1.6 0 1.2 0 1.8-.1 1.5-.1 2-.1 3.2-.3 3.2-.5 6.7-1.7 9.5-2.7 2.8-1.1 5.3-2.4 5.4-2.4 2-1.3 4.6-3.1 6.2-4.8 1.4-1.4 1.8-2.2 2.5-3.6.8-1.4 1.3-3.6 1.3-3.6.5-1.7.7-3.4.7-5.2 0-1.8-.3-3.7-.8-5.3-.6-1.6-1-3-1.8-4.4-.1-.3-.7-1.3-1.4-2.2-.9-1.3-1.8-2-1.8-2-3.4-3.1-7.8-4.7-12.7-4.7-.6 0-1.1 0-1.7.1-1.8.1-3.5.8-4.9 1.1l-1.7.3c-.3-.2-1-1.1-1.2-1.2-1.3-1-3.1-2.1-5-2.4-.5-.1-.9-.1-1.3-.1-1.9 0-3.4.8-4.8 1.2-2 .5-4 1-5.9 1.4-2.7.5-5.3.7-8.3.9l-.4 1c.1 1.3.1 1.7.2 3 .1 2 .1 3.7.5 5.5 0 0 .2.3.4.4.1 0 .3.1.5.1.9 0 2.7-.4 3.2-.4 3.2-.2 6.1-.5 9.2-1.1.7-.1 2.6-.7 3.4-.7H250.1c.2 0 1 .1 2.1 1.2.4.4 1.4 1.4 2.8 3.5 1.1 1.8 1.9 5.9 1.9 10.2 0 .9 0 1.8-.1 2.6-.1.9-.2 2-.2 3.1l-.2 1.8h.3c3.9-.4 7.9-1.5 10.6-3.3l.1-.1v-.2c-.1-.5-.1-1-.1-1.5 0-2 .5-4 .5-6.4v-1.1c-.3-3.3-1.2-5.7-1.9-8.3 2.8 0 4.5.5 5.9 1.5 2.1 1.5 3 4.5 3 6.6V170.1c0 .3-.1 3.3-1.8 5.9-1.1 1.6-2.1 2.6-2.8 3.3-.7.6-1.1.8-1.1.9-3.6 2.4-9 3.8-14.4 3.8-3.3 0-6.7-.5-9.7-1.5-5.1-1.7-8.2-5.5-9-6.7-.8-1.1-2.4-4-2.4-4-1.3-3.1-2.3-8.2-2.7-12.1l-.2-3.8v-.3c0-1.5.2-3.9.2-6.3 0-1.8-.1-3.5-.6-4.7-.6-1.5-1.8-2.3-2.7-3.3-.4-.5-.7-.9-1.1-1.5-1.2-1.6-2.7-3.6-3-6v-.7c0-1.3.5-2.7 1.2-3.8.7-1.1 1.7-1.8 2.7-1.8h.2c.7.1 1.1-.1 2 .7.8.7 1.3 2.3 1.3 4 0 1.4-.3 3-.9 4-.4.7-1.1 1.6-1.7 2.2l-1.1.9.2.2c.9 1.1 2.1 2.3 3.4 3.1l.1.1.1-.1c.2-.1 1.4-1.4 2-2.3.6-.9 1.1-1.9 1.1-1.9.5-1.1 1.2-2.6 1.6-4 .3-1.1.4-2.4.4-3.7 0-2.4-.4-4.8-1-6.5-.3-.7-1.1-1.9-1.2-2.4l-.4-.9c-.2-.3-.4-.7-.5-1-.4-.9-.6-1.5-1-2.4-.1-.2-.2-.8-.4-1.1-.1-.1-.2-.1-.2-.1h-.5l-.1-.2-.2.4c-.8 1.3-1.4 2.4-2.2 3.7-.3.5-.7 1-1.1 1.5-.6-1.4-1.3-2.6-1.8-3.6-.3-.5-.5-1-.7-1.3-.2-.3-.3-.5-.5-.6H223.7l-.3-.1-.1.3c-.6 2.6-.8 4.5-1.6 6.4l-.8 1.7c-.2.5-.6 1-1.5 2.2L218 129c-.6 1-1.3 2.5-1.3 4.3 0 .3 0 .6.1.9-.1 1.8 1.3 3.8 2.4 5.4zm66.8 94.6v.2s-.8 3.6-3.3 4c-1.7.3-4.2.8-5.7.8-.4 0-.7 0-.9-.2-.1.1-.3.2-.3.3 0 0 0 .1.1.2.5.6.9 1.4 1 2.2.1.4.5 1.7.5 3.5 0 1.1-.1 2.5-.6 4l.4.3c1.1.9 1.3 1.2 1.3 1.2 1.1.9 3.5 3.1 4.8 4.5l.1.1v16l-.4-.4c-1.3-1.3-4-3.9-5.1-4.7 0 0-3.9-3.1-4.6-3.6-.8-.5-3.5-2.6-6.7-4.6-2.5-1.5-3.6-1.9-5-1.9h-.7c-2.4 0-5.8.7-12.1 4.3-1.3.7-6 3.7-7 4.3-2.1 1.4-4.1 3.4-7.8 4.3-.2 0-.3.1-.5.1-1.4 0-3.9-1-8.6-4.6l-1.2-1c-6.1-5.1-9.6-7-13.4-7.2h-.9c-1.4 0-4.8 1.2-7.2 2.3-4.3 1.9-7.6 3.4-11.2 5.4l-2.7 1.5c-1.3.8-4.6 2.6-6.3 2.6-2.4 0-4.1-1.3-8.1-4.4l-.9-.7c-3.8-3.1-9.1-7.3-14-7.6h-.5c-4.9 0-10 3.1-11.8 4-1.2.7-3.7 2.2-4.4 2.6-.7.4-6.8 4.4-12.6 9.2l-.4.3v-15.7l.1-.1c5.8-4.9 12.3-8.8 12.9-9.2.7-.4 3.1-1.9 4.4-2.6 1.7-1 6.9-4.1 12-4.1h.6c1.4.1 2.5.4 3.7.8l.2-.3 2.3-2.4c1.4-1.4 3.1-2.9 4.3-2.9h.2c.2-.2.2-.8 1.1-1.7.9-.9 1.3-.9 2.1-2.2 0-.3 0-1.3.2-1.8.1-.2.6-3.1.6-6.1v-.9c-1 2.1-3.7 7.4-6.8 7.5h-.3c-3.9-.4-4.8-3.8-7-11.6 0 0 0-.1-.1-.3-.1-.2-.3-.5-.7-.9-.8-.6-2.3-1.3-5.5-1.3-1.2 0-2.6.1-4.2.3l-.1.7c.6.2 2.4.8 4.3 1.6 2.2 1.1 4.5 2.3 4.6 4 0 .4.4 1.7.4 3.5 0 2.8-1 7.1-5.7 12.4 0 0-1 1.1-1.5 1.6 0 0-.4.5-1.1.6-.3 0-.6-.1-.8-.5-.3-.4-1.6-1.7-1.6-1.7s-.8-.7-.9-.9l-.1-.1c-.1-.1-.3-.2-.5-.3-.4-.2-1-.6-1.7-.9-1.3-.7-2.8-1.5-3.9-2.2-.7-.5-1.1-.6-1.3-1l-.1-.1c-.1-.1-.3-.2-.6-.3-.5-.3-1.1-.6-1.8-1-1.2-.7-2.5-1.4-2.6-2.3-.2-.2-.7-.6-.8-.8 0 0-.7-2.4-1.1-5.6-.1-.3-1-2.9-1-4.7v-.5c-.1-.2-.3-.7-.3-1.5 0-.6.1-1.4.5-2.3 1-2.4.4-1 .8-2.9.3-1.4 1.9-4.3 2.7-5.7l.4-.7c0-.1.1-.1.1-.1v-.1c.3-.4.9-1.1 1.9-1.4 1.4-.3 15.3-1 17.1-6.1-.9.3-3 1-3.5 1-.1 0-.1.1-.2.2-.2.2-.4.4-.7.6-.6.5-1.4 1-2.3 1-.3 0-.6-.1-.9-.2-.1 0-.3.1-.5.1-.7 0-1.8-.3-3.2-1.9 0 0-1.6-2.3-1.6-3.7v-.3c-.3-.4-1.5-2.2-1.8-2.8-.2-.3-2.1-2.5-2.7-5-.5.4-1.5 1-2.9 1-1.5 0-3.5-.7-6-2.9v-.1-.1c0-.1-.1-.1-.2-.2-.3-.2-.7-.4-1.6-.4-.5 0-1.2.1-2.1.3h-.2l-.8-1.5.1-.1s.4-.5 1-1.8c.5-1.3 1.1-3.4 1.5-6.6 0 0 .1-.4.2-1.1.4-1.6 1.2-4.6 2.9-6.1-.7-.9-3.6-4.7-3.6-9.4 0-3.5 1.6-7.4 6.9-10.8l.2-.1.7 1.1v.1s.5 4.8 4.2 6c.3.1.6.1.8.1.4 0 .6-.1.7-.1.4-.5 3.8-5.1 9.2-5.1.4 0 .8 0 1.3.1h.2c.3 0 .9-.1 1.6-1.4.3-.5.4-1.1.4-1.7 0-1.6-1.1-3.4-3.3-4.1l-.2-.1v-1.5h.2s3-.8 6.7-.8c2 0 4.1.2 6 1 3.8 1.5 6.7 3.7 7.4 9 2.1-.6 14.8-4.6 17.6-4.6h.4s17.9.7 36.6 7.3l.2.1s-1 4.8-.3 9.9c0 .1-.3-.1-.3-.1s-3.9-.9-8.1-1.8c-4.2-.9-8.7-1.9-9.8-1.8h-.2s-.4.1-.8.3c-.4.2-.7.5-.7.6 0 .5.5 3 5.6 12.3l.3.5-4.8-1.1h-4.2v-.2s-1.1-4.2-4.3-8.6c-3.2-4.4-8.5-9-16.8-9.9h-.4c-3.1 0-12.1 3.1-12.1 3.1s-2.7.8-3.7.9h-.3l-.2-.1v-.2s.2-1.2.2-2.9c0-3.3-.9-8-5.8-8.6.7.9 2.1 2.9 2.1 5.2 0 1.6-.7 3.3-3 4.8 0 0-2.4.8-4.1.8-.5 0-1-.1-1.4-.3-.1-.1-.3-.1-.6-.1-1.8 0-6.1 1.9-6.6 3.2-.8 1.6-2.8 2.5-4.7 2.5h-.5c-2.5-.2-5-3.2-5.8-4.3-.1.4-.2 1.1-.2 1.9 0 2.5 1.2 6.4 8.1 8.4l.4.1-1 1h-.1s-.7 0-1.4.2c-.7.1-1.6.4-1.7.6 0 0-1.8 1.8-2.1 3l-.7 2.8c-.6 2-1.5 3.8-2.1 4.7h1c2.6 0 7.9-.6 8.5-4.8v-.2l1.7-.4.1.3s1.4 6.6 1.8 7.1c.4.5 2.9 5.3 2.9 6.8v.3c-.1.1-.1.3-.1.5 0 .7.3 1.7.3 2.3v.3c0 .1.5.7 1.1 1.1.6.5 1.3.9 1.4.9.5-.2 5.9-3.7 12.3-3.6h.8c.2-.2.7-.7 1.3-1.8.7-1.3 1.5-3.5 1.8-6.8.3-4.3.8-8 .8-8l-.2-2c-.1-.9-.4-2-.5-2.2h-.1s-.1 0-.1-.2.1-.2.1-.2h.5c.2 0 .6 0 1-.1.9 0 2.1-.1 3.4-.2 3.4-.1 6.5-2 6.9-2.8v-.1c0-.4-.7-1.5-2.2-2.5-1.5-.9-3.8-1.8-6.9-1.8-.5 0-1 0-1.6.1h-.2l-1.4-2.2.3-.1s2.4-.6 5.5-.6c3 0 6.8.6 9.9 2.8 0 0 .7.5 1.7 1.1 1 .5 2.2 1.1 3.1 1.1H186.8l.5 1.4-.2.1s-1.2.5-1.5 1.5c-.2.7.4 1.6-4 6.2 0 0-2.4 2.1-6.2 2.1 0 1.4-.3 8.8-4.4 13.7 0 0-3.1 4-3.6 4.3 0 0-.7.8-1.3 1.5-.7.7-1.2 1.5-1.7 1.5-.5.3-3.4 2.1-6 2.1h-.1v.1c0 .7.1 2.9 1.5 6.7l.1.2-.2.1s-1.2.9-4.1 2l-.7.2c-3.1 1.2-7.2 2.5-11.3 2.5-.6 0-1.2 0-1.7-.1-.2.5-.9 2.2-1.5 4-.7 1.9-1.5 4.1-1.6 4.3.1.3.3 1.6.4 2.3 0 .1 0 .2-.1.4 0 .7 1.3 5.5 1.5 5.7.2.3 2.4.9 3.9 2.2.3.3.4.4.5.4l.1.2v-.1.1c1.7 1.5 2.6 1.9 3.9 3.2l.1-.1c.1-.1.2-.3.3-.5.2-.3.3-.7.4-.9h-.1s1.3-3.2 1.3-4.1v-.1l-.1-.1v-.1-.2c0-.6-.2-2.4-2-3.4-1.1-.6-2-1.1-3.8-1.5h-.2l.1-2.7s.1-3.1.9-4.1c0-.2.1-.8.6-.9.4 0 2.4-.9 3.8-.9 1.3-.1 5.2-1.1 5.6-1.1h2.7c1.3.1 2.5.1 2.9.3.5.3 2.4 2.3 2.7 3.4.2.9 1.5 3 1.7 3.4.1.4 1.4 2.3 2.5 2.2h.1c1.3-.2 3.9-1.3 8-8.1l.1-.1H177.4c.1 0 2.4 1.1 2.4 8 0 2.5-.3 5.9-1.1 10.3 0 .3.3 1.8.3 2.3v.2c-.1.3-1 4.2-3.1 6.5l-.1.2c-.2.2-.2.2-.4.3h-.1s-1.5.5-1.9.6c-.3.1-2.3 1.3-2.5 1.7-.3.5-1.5 2.2-2 2.8 1.6 1.1 2.7 1.6 4.1 2.7l2.2 1.6c1.1.9 1.4.9 2.2 1.4.7-.9 3.4-4.6 3.4-6.6 0-.5-.1-.8-.4-1l-.2-.1 1.8-4.2c.9-1.5 1.8-2.5 2.7-2.6 0 0 .5 0 1.7.3.3.1.5.1.8.1 1 0 1.9-.4 3.3-.7.3-.1.4-.2.4-.7 0-.7-.4-1.8-.9-2.7-.5-.9-1.1-1.6-1.3-1.6h-.1c-.1 0-1.7-1.3-2.2-5.7-.1-.2-.6-1.4-.6-3 0-.5.1-1.1.2-1.7.6-2.6 1.8-4.6 1.8-4.6s.5-1.3 1.2-1.8c.1-.1.2-.3.2-.7.1-.4.2-1 .8-1.5.3-.2 1.4-2.9 2.3-5.7 0 0 2.2-8.3 2.2-9.1l.2-.8h1.1c1.8 0 5.9-.3 10-2.9l.2-.1.1.1.6.6-.1.1S205 198 204 201c-.8 2.5-1.7 4.4-1.7 4.4-1.6 3.4-3.8 7.2-6.4 9.9-.2.8-1.9 8.9-2.5 10.1 0 0 0 .1-.1.1 0 .1.1.1.1.2.1.2.2.5.4.8.4.6.8 1.5 1.3 2.5.9 2 1.9 4.4 1.9 6.8v.9c0 .5-.1 1.3-.9 1.9l-.2.2c-.2.2-.4.3-1 .6-.6.2-1.4.3-2.1.3-.9 0-1.8-.1-2.6-.1-1.5 0-2.7.2-3.1 1.1.1.2.2.7.5 1.7.1.4.2.9.2 1.4 0 1.5-.4 3.7-1.9 7.3v.2c1.1-.5 2.2-1.2 2.7-1.5l3.1-1.6c3.7-2 6.4-3.5 10.7-5.4 2.1-.9 5.2-2.2 7.9-2.2h.3c.6 0 1.1.1 1.6.2l.4.1c.3-.3 1.3-1.4 2.7-2.5l.1-.1c1.1-.8 2.3-1.6 3.6-1.9.2-.5.8-2.4 2.2-4.7 0-.1.2-.6.2-1.1 0-.3 0-.5-.1-.6-.4-.6-1.1-3.1-1.1-4.2 0-.2 0-.4.2-.5.4-.2 4.9-3.3 7.4-4.1h.2c.1 0 .7.3.7 1.4 0 .7-.1 1.4-.1 2.1 0 .3 0 .6.1.7.1.5.9 1.9.9 2.9 0 .1 0 .2-.1.4-.2.7-.8 4.2-2.5 6.9-.9 1.4-1.4 2.4-1.7 3.2l-.1.1c-.3.6-.3.9-.5 1.3l-.1.2-.2-.1h-.3c-.2 0-.5 0-.9.1-1.3.3-2.9 1.6-4.2 3.1.1.1.2.1.3.2.3.2.7.5 1.1.8.9.6 2.1 1.4 3.2 2.2 1.4 1.1 2.9 2.6 3.5 3.2l.1-.1c1.4-2.1 1.8-3.6 1.8-4.5 0-.6-.1-.9-.2-1.2-.1-.2-.2-.3-.2-.3l-.2-.2.2-.2c.5-.4.7-2.2 2-4.2.2-.3.6-.6 1-.8h.1c.7-.3 1.5-.4 2.3-.4 1.5 0 2.9.3 3.2.4h.1c.1-.2.2-.6.2-.9 0-1.8-1.7-4.7-1.8-4.8-.5-.4-1-2.1-1-3.1 0-.3 0-.5.3-.7.1 0 .1-.1.1-.3 0-.3-.1-.6-.1-.6l-.1-.2.2-.1c2.9-1.8 5.9-6.8 6.5-7.9-1.8-1-3.3-2.4-3.7-2.8-4.8.6-11.1 3.4-16.3 6.1-5.2 2.7-9.2 5.2-9.2 5.1-1.8 1.9-3.7 2.6-5.3 2.6-1.2 0-2.2-.4-2.6-1-.3-.5-.6-.8-.8-1-.1-.1-.2-.1-.2-.2-1.1.6-3.4 1.9-4.7 1.9-.3 0-1.5-.1-1.5-.5v-.3c0-1.1-1.4-2.6-1.5-3.9 0-.1 0-.3.1-.4.2-.2.9-3.7 1.3-5.4.4-1.7.6-3.4.6-3.4l1-1c1 .1 1.4.2 3.7.2 3.2 0 7.5-.3 11.8-1.5 7.6-2.1 17.3-6.7 19.3-7.8 0 0 1.9-1.3 3.8-1.3.6 0 1.1.1 1.6.4 0 0 3.7 2.6 6 5.8 0 0 1.2 1.7 3.5 3.4s5.7 3.4 10.1 3.4c.4 0 .9 0 1.3-.1h1.1c6.4 0 6.1 4.9 6.5 8 0 0 .4 1 .8 2.1s.9 2.2 1.1 2.4c0 0 .1 0 .1.1.1.1.1.1.1.2-.1.5-.8 1.4-1.7 2.7-.9 1.3-1.8 2.8-2.1 3.7-.2.4-.5.4-.9.6-.4.1-1 .3-1.7.9l-.3.3c-.6.5-1.6 1.2-2.2 2.2h1.3c1.6.1 4.6 1.4 8.1 4.1.4-.6.6-1.5.6-2.4 0-1.1-.2-2.2-.3-2.4-.2-.2-.3-.6-.3-.9 0-1.6 2.1-4 2.1-4l1.4-.7h.4c2.6 0 4-1.4 4.5-2-.8-.5-1.6-2.2-2.4-3.8-.9-1.8-1.5-3.6-1.5-3.6 0-13.3-1.2-14.1-2-15.6-.1-.4-1.9-1.1-3.6-1.7-1.7-.5-3.3-.9-3.3-1-8.1-3.5-8.3-11.8-8.3-12.8v-.3c7 .4 11.8-2.5 11.8-2.5v.4s.2 1.3 1 4c.9 2.7 2.5 5.8 5.4 7.8.3.1 2.5.7 3.7 1.3.4.2.7.3.8.8 0 .1.1.1.3.3.2.2.6.6.9 1.3.6 1.4 1.2 3.8 1.2 8.7v4.5c-.3 9.1 1.8 10.4 3.5 13.4zm-33 8.3zm-102.4-17.6zm-81 245v-8.3l-15.5-2.2v-.1l15.5-2.2v-8.3l-21.9-4.5v7.1l15.8 1.8v.1l-15.8 2.1v7.8l15.8 2.1v.1l-15.8 1.8v7l21.9-4.3zm0-30v-8.3l-15.5-2.2v-.1l15.5-2.2v-8.3l-21.9-4.5v7l15.8 1.8v.1l-15.8 2.1v7.8l15.8 2.1v.1l-15.8 1.8v7l21.9-4.2zm0-30v-8.3l-15.5-2.2v-.1l15.5-2.2v-8.3l-21.9-4.5v7l15.8 1.8v.1l-15.8 2.1v7.8l15.8 2.1v.1l-15.8 1.8v7.1l21.9-4.3zm0-25.9v-6.8h-8v6.8h8zm-10.9-28.1c-6.3 0-11.5.8-11.5 9.3 0 8.2 5.8 9.3 11.5 9.3 6.3 0 11.5-.8 11.5-9.3 0-8.2-5.8-9.3-11.5-9.3zm0 11.3c-5.6 0-6.8-.4-6.8-2 0-1.7 1.3-2 6.8-2s6.8.4 6.8 2-1.3 2-6.8 2zm-.4-17.8l11.3 5.8v-7.3l-6.6-2.7 6.6-2.6v-7.3l-11.3 5.8-10.6-5.5v7.3l5.9 2.5-5.9 2.2v7.3l10.6-5.5zm11.3-16.3v-7.3h-17v-3h-4.9v3h-1.3c-1.1 0-1.5-.9-1.5-1.7 0-.5 0-.9.1-1.2h-4.6c-.2 1.1-.2 2.4-.2 3.5 0 5.1 1.6 6.8 6 6.8h1.6v2.5h4.9v-2.5h16.9zm-10.9-29.7c-6.3 0-11.5.8-11.5 9.3 0 8.2 5.8 9.3 11.5 9.3 6.3 0 11.5-.8 11.5-9.3 0-8.2-5.8-9.3-11.5-9.3zm0 11.3c-5.6 0-6.8-.4-6.8-2 0-1.7 1.3-2 6.8-2s6.8.4 6.8 2-1.3 2-6.8 2zm10.9-13.4V294h-12c-2.9 0-3.9-1.5-3.9-4.1 0-.6 0-1.2.2-1.8h-6.8v1.2c0 2.1 1.4 4.1 4.1 4.9v.1h-3.5v7h21.9zm-19.4-25.2c-2.2.8-3 2.6-3 4.7 0 4.1 2.8 6.7 11.1 6.7 8.1 0 12-1.7 12-6.6 0-2.6-1.1-4.1-3.6-5v-.1h3v-7h-29v7.3h9.5zm8.5 4.1c-4.7 0-6.1-.4-6.1-2.1 0-1.7 1.4-2 6.1-2 4.7 0 6.1.4 6.1 2-.1 1.7-1.4 2.1-6.1 2.1zm10.9-14.8v-6.8h-8v6.8h8zM50.7 244c-2.6.9-3.6 2.9-3.6 4.9 0 4.3 2.6 6.8 11.1 6.8 9.1 0 10.8-3.5 10.8-6.4 0-2-.8-4-3.3-4.9v-.1h4.2c2.4 0 2.7 1.1 2.7 2.2s-.6 1.8-1.7 1.8v6.6c5-.1 6.2-3.8 6.2-8.5 0-5.1-1.8-9.2-7.8-9.2H47.7v6.8h3zm7.4 4.4c-4.6 0-5.5-.7-5.5-2.1 0-1.3.9-2 5.5-2s5.5.7 5.5 2c0 1.4-.9 2.1-5.5 2.1zm.6-32.2c-6.3 0-11.5.8-11.5 9.3 0 8.2 5.8 9.3 11.5 9.3 6.3 0 11.5-.8 11.5-9.3 0-8.2-5.8-9.3-11.5-9.3zm0 11.3c-5.6 0-6.8-.4-6.8-2 0-1.7 1.3-2 6.8-2s6.8.4 6.8 2-1.3 2-6.8 2zm10.9-17.2v-8.6l-21.9-5.3v7.5l15.8 2v.1l-15.8 2.1v7.5l21.9-5.3zm0-13.3v-6.8h-8v6.8h8zm-5.4-10.1c4.7 0 6-2.5 6-5.7 0-2.5-1.1-4.4-3.2-5.3v-.1h2.7v-7.1h-22v7.3h14.5c1.8 0 2.6.5 2.6 1.8s-.8 1.8-2.6 1.8H47.7v7.3h16.5zm5.4-20.9v-7.3H64l-1.9-1.2 7.5-3.7V146l-12.9 6.8-9-6.1v7.8l7.6 4.1v.1H40.7v7.3h28.9zm21 304.8V4.2h-3v466.6h3z"/></svg>