<?xml version="1.0" encoding="utf-8"?>
<!-- Generator: Adobe Illustrator 19.0.1, SVG Export Plug-In . SVG Version: 6.00 Build 0)  -->
<svg version="1.1" id="Layer_1" xmlns="http://www.w3.org/2000/svg" xmlns:xlink="http://www.w3.org/1999/xlink" x="0px" y="0px"
	 viewBox="0 0 287.996 352.88" enable-background="new 0 0 287.996 352.88" xml:space="preserve">
<g>
	<path fill="#FFFFFF" stroke="#FFFFFF" stroke-width="0.36" d="M99.2,235.35c0-7.431,3.663-13.101,11.588-13.101
		c7.924,0,11.587,5.67,11.587,13.101c0,7.432-3.663,13.104-11.587,13.104C102.863,248.454,99.2,242.782,99.2,235.35z
		 M115.507,235.35c0-5.741,0-12.081-4.719-12.081c-4.72,0-4.72,6.341-4.72,12.081c0,5.742,0,12.081,4.72,12.081
		C115.507,247.431,115.507,241.092,115.507,235.35z"/>
	<path fill="#FFFFFF" stroke="#FFFFFF" stroke-width="0.36" d="M125.614,222.812h12.433v1.021h-0.563
		c-0.635,0-1.586,0.177-1.586,0.809c0,0.67,1.234,2.712,2.325,4.545l1.585,2.606l2.537-3.698c0.81-1.163,1.408-2.501,1.408-3.135
		c0-0.705-0.915-1.128-1.585-1.128h-0.493v-1.021h7.502v1.021h-0.282c-1.092,0-2.676,1.056-3.874,2.783l-4.473,6.516l4.368,7.255
		c3.204,5.318,4.156,6.481,5.916,6.481h0.388v1.021h-13.173v-1.021h0.529c0.74,0,1.726-0.177,1.726-0.916
		c0-0.81-1.374-3.028-2.607-5.037l-2.113-3.451l-1.937,2.817c-1.374,2.044-3.029,4.403-3.029,5.282c0,1.092,0.74,1.268,1.62,1.304
		h0.527v1.021h-7.361v-1.021h0.423c1.338,0,2.888-1.937,3.839-3.275l5.177-7.326l-4.614-7.608c-0.704-1.198-1.444-2.501-2.218-3.628
		c-0.705-1.02-0.775-1.197-1.761-1.197h-0.635V222.812z"/>
	<path fill="#FFFFFF" stroke="#FFFFFF" stroke-width="0.36" d="M154.108,246.868h0.529c1.972,0,1.972-0.494,1.972-4.614v-13.807
		c0-4.121,0-4.614-1.972-4.614h-0.529v-1.021h19.442v6.022H172c-0.599-4.014-2.36-4.79-6.128-4.79h-2.712v10.708h2.219
		c2.395,0,4.191-0.282,4.508-3.91h1.268v9.053h-1.304c-0.246-3.381-2.077-3.91-4.472-3.91h-2.219v6.269c0,4.12,0,4.614,1.972,4.614
		h0.529v1.021h-11.553V246.868z"/>
	<path fill="#FFFFFF" stroke="#FFFFFF" stroke-width="0.36" d="M177.771,235.35c0-7.431,3.663-13.101,11.587-13.101
		c7.925,0,11.588,5.67,11.588,13.101c0,7.432-3.663,13.104-11.588,13.104C181.434,248.454,177.771,242.782,177.771,235.35z
		 M194.078,235.35c0-5.741,0-12.081-4.72-12.081c-4.719,0-4.719,6.341-4.719,12.081c0,5.742,0,12.081,4.719,12.081
		C194.078,247.431,194.078,241.092,194.078,235.35z"/>
	<path fill="#FFFFFF" stroke="#FFFFFF" stroke-width="0.36" d="M205.171,246.868h0.529c1.972,0,1.972-0.494,1.972-4.614v-13.807
		c0-4.121,0-4.614-1.972-4.614h-0.529v-1.021h11.623c3.206,0,10.074,0.141,10.074,6.094c0,3.099-2.959,5.143-5.742,5.67v0.07
		c5.424,0.423,5.742,4.226,5.742,8.102v1.478c0,1.619,0.071,2.57,0.881,2.57c0.457,0,1.092-0.704,1.655-1.408l0.846,0.635
		c-1.374,1.761-2.818,2.431-5.002,2.431c-4.156,0-4.93-3.841-4.93-7.292c0-3.979-0.212-5.6-3.1-5.6h-2.994v6.692
		c0,4.12,0,4.614,1.972,4.614h0.527v1.021h-11.553V246.868z M214.223,234.33h1.056c3.488,0,5.038-0.916,5.038-5.108
		c0-4.12-1.515-5.177-5.038-5.177h-1.056V234.33z"/>
	<path fill="#FFFFFF" stroke="#FFFFFF" stroke-width="0.36" d="M233.658,246.868h0.528c1.972,0,1.972-0.494,1.972-4.614v-13.807
		c0-4.121,0-4.614-1.972-4.614h-0.528v-1.021h13.137c6.375,0,11.13,4.438,11.13,12.538c0,8.102-4.755,12.539-11.13,12.539h-13.137
		V246.868z M242.71,246.656h2.501c4.755,0,5.847-4.402,5.847-11.306c0-6.903-1.092-11.306-5.847-11.306h-2.501V246.656z"/>
	<path fill="#FFFFFF" stroke="#FFFFFF" stroke-width="0.36" d="M152.378,269.863c-0.635-3.065-2.396-6.128-5.883-6.128
		c-4.403,0-5.529,5.389-5.529,12.398c0,3.452,0.141,11.34,5.459,11.34c3.768,0,5.6-2.994,5.987-6.338h1.55v7.361h-1.48
		c-0.141-0.316-0.493-0.635-0.88-0.635c-0.845,0-3.03,0.846-5.354,0.846c-8.101,0-12.151-5.46-12.151-13.278
		c0-7.573,4.086-12.926,11.975-12.926c2.994,0,5.071,1.092,5.635,1.02c0.422-0.035,0.915-0.351,0.915-0.81h1.021v7.151H152.378z"/>
	<path fill="#FFFFFF" stroke="#FFFFFF" stroke-width="0.36" d="M158.858,287.121h0.529c1.972,0,1.972-0.494,1.972-4.614v-13.808
		c0-4.12,0-4.613-1.972-4.613h-0.529v-1.021h11.553v1.021h-0.529c-1.972,0-1.972,0.493-1.972,4.613v13.808
		c0,4.12,0,4.614,1.972,4.614h0.529v1.02h-11.553V287.121z"/>
	<path fill="#FFFFFF" stroke="#FFFFFF" stroke-width="0.36" d="M174.46,263.065h23.035v6.798h-1.549
		c-0.388-3.065-1.797-5.565-5.143-5.565h-1.55v18.21c0,4.12,0,4.614,1.972,4.614h0.528v1.02h-11.553v-1.02h0.527
		c1.972,0,1.972-0.494,1.972-4.614v-18.21h-1.549c-2.994,0-4.825,2.043-5.143,5.565h-1.55V263.065z"/>
	<path fill="#FFFFFF" stroke="#FFFFFF" stroke-width="0.36" d="M206.894,288.141v-1.02h0.599c1.092,0,1.937-0.212,1.937-1.62v-6.904
		l-5.423-11.059c-1.445-2.959-2.466-3.452-3.522-3.452h-0.388v-1.021h12.856v1.021h-0.493c-0.915,0-2.007,0.177-2.007,1.162
		c0,0.669,0.211,1.092,0.809,2.359l4.157,8.596l3.205-6.622c1.162-2.396,1.374-3.134,1.374-3.84c0-1.374-0.704-1.655-1.832-1.655
		h-0.704v-1.021h7.502v1.021h-0.387c-1.128,0-1.938,1.021-2.959,3.029l-5.635,11.059v7.678c0,1.092,0.669,1.268,1.972,1.268h0.704
		v1.02H206.894z"/>
	<path fill="#FFFFFF" stroke="#FFFFFF" stroke-width="0.36" d="M117.159,311.42c-0.588-2.844-2.224-5.691-5.462-5.691
		c-4.088,0-5.135,5.004-5.135,11.514c0,3.205,0.131,10.531,5.07,10.531c3.499,0,5.2-2.78,5.561-5.887h1.439v6.835h-1.374
		c-0.131-0.295-0.458-0.588-0.818-0.588c-0.785,0-2.813,0.785-4.972,0.785c-7.522,0-11.284-5.069-11.284-12.33
		c0-7.032,3.794-12.003,11.12-12.003c2.781,0,4.711,1.014,5.233,0.948c0.393-0.033,0.85-0.326,0.85-0.753h0.949v6.64H117.159z"/>
	<path fill="#FFFFFF" stroke="#FFFFFF" stroke-width="0.36" d="M123.242,316.751c0-6.9,3.401-12.166,10.761-12.166
		c7.359,0,10.76,5.266,10.76,12.166c0,6.902-3.401,12.168-10.76,12.168C126.643,328.919,123.242,323.653,123.242,316.751z
		 M138.385,316.751c0-5.331,0-11.218-4.382-11.218c-4.383,0-4.383,5.887-4.383,11.218c0,5.331,0,11.219,4.383,11.219
		C138.385,327.97,138.385,322.082,138.385,316.751z"/>
	<path fill="#FFFFFF" stroke="#FFFFFF" stroke-width="0.36" d="M171.285,306.056c-2.093,0-2.486,0.491-2.486,5.331v8.178
		c0,6.345-3.14,9.354-9.288,9.354c-5.462,0-8.668-3.206-8.668-7.653v-10.794c0-3.631,0-4.416-2.355-4.416v-0.949h10.794v0.949
		c-1.929,0-2.355,0.165-2.355,2.093v13.836c0,2.519,0.785,5.201,4.939,5.201c4.578,0,5.495-4.351,5.495-7.753v-6.737
		c0-6.541-0.523-6.64-2.716-6.64v-0.949h6.64V306.056z"/>
	<path fill="#FFFFFF" stroke="#FFFFFF" stroke-width="0.36" d="M174.587,327.447c2.257,0,2.29-2.649,2.29-4.186v-12.92
		c0-3.827,0-4.285-1.832-4.285h-0.491v-0.949h8.406c1.472,2.911,3.336,5.626,5.103,8.374l5.331,8.274h-0.033h0.066v-11.512
		c0-1.538-0.032-4.187-2.29-4.187h-0.425v-0.949h6.442v0.949c-2.256,0-2.289,2.649-2.289,4.187v18.413h-4.089l-12.396-18.97h-0.065
		v13.574c0,1.537,0.033,4.186,2.29,4.186h0.425v0.948h-6.444V327.447z"/>
	<path fill="#FFFFFF" stroke="#FFFFFF" stroke-width="0.36" d="M218.248,311.42c-0.588-2.844-2.224-5.691-5.462-5.691
		c-4.088,0-5.134,5.004-5.134,11.514c0,3.205,0.13,10.531,5.069,10.531c3.499,0,5.201-2.78,5.561-5.887h1.439v6.835h-1.374
		c-0.131-0.295-0.458-0.588-0.818-0.588c-0.785,0-2.813,0.785-4.972,0.785c-7.522,0-11.284-5.069-11.284-12.33
		c0-7.032,3.794-12.003,11.12-12.003c2.78,0,4.71,1.014,5.234,0.948c0.392-0.033,0.85-0.326,0.85-0.753h0.948v6.64H218.248z"/>
	<path fill="#FFFFFF" stroke="#FFFFFF" stroke-width="0.36" d="M224.266,327.447h0.491c1.832,0,1.832-0.458,1.832-4.284v-12.822
		c0-3.827,0-4.285-1.832-4.285h-0.491v-0.949h10.727v0.949h-0.491c-1.83,0-1.83,0.458-1.83,4.285v12.822c0,3.826,0,4.284,1.83,4.284
		h0.491v0.948h-10.727V327.447z"/>
	<path fill="#FFFFFF" stroke="#FFFFFF" stroke-width="0.36" d="M239.015,327.447h0.491c1.832,0,1.832-0.458,1.832-4.284v-12.822
		c0-3.827,0-4.285-1.832-4.285h-0.491v-0.949h10.727v0.949h-0.491c-1.831,0-1.831,0.458-1.831,4.285v16.91h2.911
		c3.631,0,5.92-1.276,6.018-5.169h1.439v6.312h-18.774V327.447z"/>
</g>
<g>
	<path fill="#FFFFFF" stroke="#FFFFFF" stroke-width="0.36" d="M130.418,167.701c1.464-0.798,5.859-3.454,10.017-3.261
		c4.039,0.189,8.336,3.644,11.381,6.14l0.748,0.599c3.245,2.545,4.593,3.544,6.439,3.544c1.204,0,3.924-1.441,4.942-2.097
		l2.196-1.248c2.969-1.647,5.625-2.866,9.087-4.391c2.045-0.9,5.523-1.873,6.686-1.848c3.291,0.067,5.791,1.547,10.932,5.84
		l0.949,0.798c4.243,3.294,6.224,3.747,7.172,3.647c1.431-0.15,4.525-2.123,6.273-3.269c0.798-0.524,4.523-3.026,5.574-3.622
		c5.541-3.145,8.336-3.544,10.383-3.444c1.196,0.058,2.096,0.349,4.143,1.596c2.596,1.584,4.832,3.271,5.441,3.693
		c0.61,0.424,3.744,2.946,3.744,2.946c0.85,0.715,3.011,2.573,4.043,3.622v12.653c-3.128-2.844-7.122-6.239-7.77-6.788
		c-0.65-0.549-1.847-1.398-1.847-1.398c-2.896-2.197-5.191-3.594-7.288-3.843c-0.898-0.107-3.844-0.1-6.04,0.748
		c-4.354,1.682-6.539,3.495-6.539,3.495s-8.236,5.489-11.481,5.939c-0.331,0.047-1.697-0.083-3.161-1.015
		c-1.561-0.993-6.922-5.257-6.922-5.257c-5.058-3.793-6.757-4.205-7.904-4.363c-1.447-0.199-2.845-0.05-5.741,1.049
		c-0.74,0.281-4.885,2.409-5.241,2.496l-3.194,1.898c-0.926,0.581-4.168,2.608-5.342,3.144c-1.747,0.798-3.342,1.429-6.089,0.4
		c-1.198-0.451-4.58-3.061-5.241-3.644c-0.849-0.75-3.145-2.803-4.343-3.694c-3.418-2.546-5.881-2.854-6.356-2.878
		c-0.729-0.039-2.263-0.333-8.918,3.193l-1.331,0.866c-8.851,5.723-12.432,9.716-13.045,10.25v-12.929
		c4.659-3.91,9.585-7.105,10.117-7.437C127.423,169.498,129.397,168.258,130.418,167.701z"/>
	<path fill="#FFFFFF" stroke="#FFFFFF" stroke-width="0.36" d="M116.699,199.21c0.613-0.533,4.194-4.525,13.045-10.25l1.331-0.865
		c6.656-3.527,8.189-3.232,8.919-3.195c0.474,0.026,2.936,0.334,6.356,2.879c1.198,0.892,3.494,2.946,4.343,3.693
		c0.662,0.585,4.043,3.195,5.241,3.645c2.748,1.03,4.342,0.4,6.089-0.4c1.174-0.536,4.416-2.564,5.342-3.145l3.194-1.895
		c0.356-0.087,4.501-2.216,5.241-2.497c2.895-1.097,4.293-1.248,5.741-1.047c1.147,0.158,2.845,0.568,7.904,4.363
		c0,0,5.36,4.263,6.922,5.257c1.463,0.931,2.829,1.061,3.161,1.014c3.245-0.449,11.481-5.94,11.481-5.94s2.185-1.811,6.539-3.494
		c2.197-0.848,5.143-0.856,6.04-0.748c2.096,0.25,4.392,1.647,7.287,3.844c0,0,1.638,1.302,2.271,1.868
		c0.974,0.87,4.793,4.184,7.422,7.239v13.028c-4.027-3.793-6.823-5.89-7.372-6.389l-1.298-1.148
		c-5.741-4.793-7.138-5.142-9.384-5.092c-0.998,0.022-4.193,0.55-7.239,2.296l-4.392,2.545c0,0-7.788,4.942-10.783,5.242
		c-3.361,0.336-8.485-3.794-10.283-5.242c-1.275-1.027-2.944-2.346-2.944-2.346c-2.347-1.895-4.245-2.786-5.392-2.944
		c-1.447-0.2-2.845-0.05-5.741,1.049c-0.74,0.279-4.885,2.409-5.241,2.496l-3.194,1.895c-0.925,0.583-4.168,2.609-5.342,3.145
		c-1.746,0.799-3.341,1.43-6.089,0.4c-1.198-0.449-4.579-3.06-5.241-3.645c-0.849-0.748-3.145-2.801-4.342-3.694
		c-3.419-2.545-5.882-2.853-6.357-2.879c-0.73-0.037-2.263-0.331-8.918,3.195l-1.331,0.865c-8.851,5.724-12.431,9.717-13.045,10.25
		L116.699,199.21z"/>
	<path fill="#FFFFFF" stroke="#FFFFFF" stroke-width="0.36" d="M139.623,80.79c1.288-0.006,3.154,0.104,4.216,0.384
		c-0.087,0.067-0.095,0.302-0.192,0.384c-0.482,0.392-1.054,0.658-1.534,1.053c-0.077,0.061-0.189,0.349-0.287,0.383h-0.192
		c-0.102,0.085-0.263,0.438-0.384,0.48h-0.192c-0.273,0.224-0.422,0.616-0.67,0.863c-0.222,0.214-0.594,0.314-0.767,0.574
		c-0.186,0.27-0.407,0.851-0.48,1.15c-0.087,0.351,0.037,0.659-0.095,0.958c-0.083,0.181-0.95,0.956-1.15,1.15
		c-0.051-0.038-0.356-0.089-0.383-0.095c-0.027-0.189-0.129-1.473-0.192-1.629c-0.072-0.173-0.431-0.182-0.575-0.288
		c-0.455-0.331-1.075-1.042-1.341-1.534c-0.441-0.799-0.268-1.251,0.095-1.915C136.235,81.347,137.58,80.796,139.623,80.79z"/>
	<path fill="#FFFFFF" stroke="#FFFFFF" stroke-width="0.36" d="M222.639,72.244c1.162-0.239,2.518-0.758,3.93-0.862
		c4.532-0.333,8.474,1.014,11.47,3.71c0,0,0.641,0.59,1.397,1.598c0.721,0.962,1.286,2.073,1.126,1.785
		c0.616,1.114,0.986,2.261,1.437,3.546c0.881,2.519,0.872,5.621,0.095,8.338c0,0-0.461,1.755-1.06,2.853
		c-0.599,1.098-0.899,1.697-1.997,2.845c-1.283,1.342-3.344,2.845-4.941,3.844c0,0-2.047,1.098-4.293,1.947
		c-2.245,0.847-5.041,1.796-7.637,2.196c-0.949,0.146-1.397,0.101-2.592,0.211c-1.073,0.101-2.271,0.063-3.259,0
		c-0.987-0.061-1.916-0.191-1.916-0.191c-4.143-0.372-7.357-1.469-10.255-3.26c0,0-2.693-1.303-5.488-4.597
		c-2.796-3.245-3.322-5.938-3.648-6.988c-0.576-1.846-1.02-3.878-1.311-5.858l-0.383-3.258c-0.08-1.072-0.168-2.448-0.099-3.364
		c0.068-0.943,0.156-1.921,0.195-2.866v-0.862c0.041-1.069,0.275-2.824,0.095-4.025c-0.144-0.943-0.858-1.835-1.289-2.53
		c0,0-0.766-1.073-1.148-1.548c0,0-1.049-1.248-1.948-2.596c-0.898-1.348-1.982-2.895-2.228-4.636
		c-0.228-1.614,0.423-3.1,0.958-4.025l1.121-1.821c0.649-0.998,0.964-1.392,1.179-1.821l0.671-1.342
		c0.689-1.542,0.795-3.127,1.293-5.174c0.1,0.045,0.419-0.037,0.527-0.002c0.243,0.081,1.37,2.248,2.491,4.696
		c0.297-0.479,0.782-1.067,1.075-1.549c0.644-1.07,1.097-1.947,1.747-2.996c0.015,0.024,0.519-0.03,0.548,0
		c0.129,0.126,0.216,0.628,0.3,0.799c0.327,0.676,0.478,1.215,0.834,1.925c0.096,0.195,0.243,0.542,0.384,0.767l0.287,0.671
		c0.117,0.458,0.767,1.374,0.958,1.917c0.728,2.091,1.079,5.619,0.48,8.146c-0.263,1.103-0.806,2.244-1.246,3.163
		c0,0-0.4,0.783-0.899,1.531c-0.499,0.748-1.498,1.76-1.593,1.823c-1.018-0.596-1.975-1.529-2.699-2.422l0.782-0.645
		c0.512-0.479,1.091-1.198,1.438-1.821c1.045-1.89,1.03-5.528-0.374-6.669c-0.798-0.649-1.236-0.559-1.747-0.599
		c-1.947-0.15-3.744,2.844-3.439,5.255c0.249,1.974,1.498,3.602,2.44,4.928c0.315,0.443,0.564,0.79,0.914,1.206
		c0.716,0.85,1.678,1.428,2.109,2.588c0.848,2.282,0.224,7.035,0.272,8.986l0.199,3.044c0.321,3.142,1.146,7.292,2.213,9.822
		c0,0,1.253,2.313,1.916,3.259c0.664,0.945,3.209,4.041,7.379,5.462c6.465,2.204,14.792,1.378,19.551-1.82
		c0,0,1.47-0.777,3.234-3.394c1.547-2.296,1.497-4.893,1.497-4.893c0.2-1.747-0.483-4.676-2.446-6.09
		c-1.248-0.898-2.704-1.246-5.16-1.246c0.641,2.177,1.42,4.127,1.629,6.902c0.204,2.734-0.616,4.855-0.288,7.283
		c-2.111,1.443-5.313,2.282-8.46,2.636l0.122-1.198c0.063-0.851,0.136-1.74,0.192-2.492c0.305-4.119-0.314-8.59-1.462-10.436
		c-1.063-1.709-1.943-2.543-2.246-2.846c-1.148-1.148-1.945-0.999-1.945-0.999c-0.578-0.104-2.402,0.468-2.971,0.576
		c-2.45,0.455-4.771,0.665-7.379,0.862c-0.509,0.036-2.402,0.448-2.876,0.288c-0.042-0.015-0.09-0.171-0.192-0.193
		c-0.198-1.449-0.171-2.815-0.287-4.408c-0.069-0.919-0.246-1.934-0.288-2.971c2.46-0.195,4.739-0.341,6.901-0.767
		c1.537-0.305,3.166-0.752,4.792-1.15c1.486-0.368,2.861-1.273,4.888-0.863c1.446,0.29,2.899,1.129,3.93,1.916
		c0.153,0.117,0.935,1.022,1.054,1.055L222.639,72.244z"/>
	<path fill="#FFFFFF" stroke="#FFFFFF" stroke-width="0.36" d="M114.001,88.825c-0.109,0.511-0.156,0.843-0.156,0.843
		c-0.498,5.192-1.996,6.839-1.996,6.839l0.499,0.949c2.945-0.7,3.394,0.399,3.394,0.399c4.592,4.194,7.138,1.298,7.138,1.298
		c0.35,2.197,2.197,4.343,2.197,4.343c0.199,0.449,1.498,2.296,1.498,2.296c-0.3,0.849,1.248,3.094,1.248,3.094
		c1.747,1.946,2.846,1.398,2.846,1.398c1.647,0.748,3.194-1.398,3.344-1.297c0.15,0.1,3.145-0.899,3.145-0.899
		c-1.082,4.642-12.929,5.092-14.026,5.391c-1.098,0.3-1.548,1.249-1.548,1.249s0.197-0.358,0,0l-0.325,0.577
		c-0.611,1.106-1.894,3.506-2.121,4.563c-0.3,1.397,0.15,0.399-0.649,2.346c-0.799,1.947-0.101,2.946-0.101,2.946
		c-0.249,1.347,0.799,4.192,0.799,4.192c0.249,2.547,0.848,4.493,0.848,4.493c0.1,0.149,0.7,0.65,0.7,0.65
		c0,1.098,4.042,2.645,4.143,3.044c0.1,0.401,5.84,3.345,5.99,3.545c0.065,0.087,0.724,0.701,0.724,0.701s1.04,1,1.323,1.395
		c0.499,0.7,1.199-0.1,1.199-0.1c0.429-0.44,1.197-1.295,1.197-1.295c6.24-7.142,4.194-11.693,4.194-12.731
		c0-2.203-7.139-4.393-7.139-4.393l0.101-0.848c8.735-1.198,8.835,1.946,8.835,1.946c1.747,6.241,2.496,8.836,5.441,9.135
		c2.945,0.299,5.84-6.64,5.84-6.64c0.3,3.046-0.449,6.49-0.449,6.49c-0.151,0.249-0.151,1.447-0.151,1.447
		c-0.649,1.098-1.746,1.897-1.746,1.897c-0.25,0.849-0.949,1.447-0.949,1.447c-0.768-0.274-2.329,1.023-3.581,2.248l-1.843,1.962
		l-0.219,0.313c-0.998-0.379-1.9-0.629-3.043-0.682c-4.159-0.193-8.552,2.463-10.017,3.261c-1.02,0.556-2.996,1.797-3.528,2.13
		c-0.533,0.333-5.757,3.472-10.416,7.383v12.113c4.66-3.91,9.659-7.107,10.192-7.44c0.532-0.333,2.506-1.574,3.527-2.131
		c1.465-0.797,5.859-3.454,10.017-3.26c4.039,0.187,8.337,3.644,11.382,6.139l0.748,0.6c3.245,2.545,4.592,3.544,6.439,3.544
		c1.204,0,3.924-1.441,4.942-2.097l2.197-1.248c2.968-1.648,5.625-2.866,9.086-4.391c2.045-0.901,4.799-1.878,5.964-1.854
		c0.137,0.002,0.315-0.024,0.449-0.017l0.284,0.017c3.096,0.18,5.995,1.731,10.923,5.846l0.948,0.798
		c4.244,3.295,6.241,3.856,7.171,3.648c2.895-0.65,4.46-2.25,6.206-3.398c0.777-0.51,4.592-2.897,5.641-3.495
		c5.54-3.143,8.336-3.544,10.383-3.444c1.197,0.059,2.097,0.351,4.143,1.599c2.595,1.581,4.832,3.271,5.442,3.693
		c0.609,0.422,3.743,2.945,3.743,2.945c0.85,0.716,3.07,2.79,4.102,3.838v-12.313c-1.032-1.048-3.026-2.865-3.877-3.58
		c0,0-0.149-0.216-1.049-0.929l-0.399-0.316l0,0c0.949-3.444,0.199-5.541,0.1-6.139c-0.1-0.6-0.399-1.198-0.798-1.699
		c-0.4-0.498,0.299-0.798,0.299-0.798c0.4,0.499,3.494-0.2,5.291-0.499c1.797-0.299,2.496-3.096,2.496-3.096
		c-1.497-2.595-3.393-3.793-3.094-13.377c0.3-9.583-1.897-9.583-1.897-10.084c0-0.498-3.494-1.497-3.494-1.497
		c-4.792-3.195-5.291-10.383-5.291-10.383c-2.397,1.697-9.185,2.496-9.185,2.496s-0.2,7.287,6.589,10.184
		c0,0,5.245,1.304,5.691,2.197c0.599,1.198,1.598,1.996,1.598,12.679c0,0,2.197,5.79,3.295,5.99c0,0-1.232,1.996-4.127,1.897
		l-1.065,0.532c0,0-2.397,2.829-1.398,3.728c0,0,0.799,2.862-0.333,4.259l0,0c-2.795-2.263-5.359-3.323-6.556-3.38
		c-0.398-0.019-1.397,0.053-1.397,0.053c0.461-0.96,1.382-1.69,1.964-2.129l0.273-0.208c1.278-0.97,1.94-0.663,2.056-1.057
		c0.499-1.697,3.295-5.19,2.995-5.19c-0.299,0-1.596-3.795-1.596-3.795c-0.4-2.795-0.01-6.744-5.991-6.289
		c-7.886,0.599-12.18-5.491-12.18-5.491c-1.784-2.47-4.792-4.592-4.792-4.592c-1.598-0.998-4.193,0.7-4.193,0.7
		c-1.598,0.899-9.384,4.592-15.574,6.289c-5.998,1.645-11.78,1.198-13.677,0.999l0,0l-0.101,0.7c0,0-1.169,5.276-1.597,5.791
		c-0.499,0.598,2.096,3.992,1.797,4.891c-0.3,0.899,3.893-0.799,4.792-1.298c0,0,0.433,0.232,0.998,1.098
		c0.566,0.864,3.462,1.397,5.991-1.299c0,0,12.978-8.086,20.766-9.084c0,0,1.497,1.497,3.194,2.396c0,0-2.695,4.891-5.391,6.59
		c0,0,0.3,0.797-0.1,0.998c-0.4,0.201,0.299,2.496,0.599,2.696c0.299,0.199,2.222,3.613,1.304,4.95l-0.249-0.033
		c-0.354-0.077-2.856-0.668-4.352-0.008l-0.098,0.041c-0.291,0.128-0.533,0.304-0.698,0.541c-1.097,1.576-1.223,2.945-1.672,3.394
		c0,0,1.472,1.331-1.023,5.092l-0.199,0.325c0,0-1.523-1.573-2.97-2.721c-1.722-1.324-3.946-2.543-3.819-2.696
		c1.073-1.299,2.446-2.421,3.594-2.721c0.729-0.19,1.049-0.075,1.049-0.075c0.15-0.288,0.189-0.52,0.4-1.023l0.068-0.116
		c0.244-0.587,0.628-1.386,1.379-2.554c1.351-2.099,1.797-4.891,1.997-5.491c0.199-0.598-0.599-1.997-0.699-2.496
		c-0.101-0.499,0-1.497,0-2.296s-0.4-0.899-0.4-0.899c-1.898,0.6-5.591,3.096-5.89,3.295c-0.3,0.199,0.499,3.096,0.798,3.494
		c0.3,0.399,0,1.497,0,1.497c-1.298,2.197-1.797,3.895-1.797,3.895c-0.996,0.238-2.042,0.875-2.936,1.555l-0.108,0.091
		c-1.346,1.023-2.246,2.047-2.246,2.047l-0.432-0.067c-0.391-0.102-0.818-0.147-1.265-0.147l-0.25,0.015
		c-2.184-0.002-4.642,1.049-6.34,1.796c-3.462,1.525-5.617,2.68-8.585,4.326l-2.529,1.332c-0.509,0.327-1.572,0.955-2.529,1.397
		l0.066-0.533c1.598-3.926,1.664-5.79,1.397-6.921c-0.266-1.132-0.399-1.464-0.399-1.464c0.865-1.93,4.673-0.565,6.514-1.256
		c0.533-0.199,0.575-0.245,0.774-0.425l0.154-0.147c0.876-0.793,0.611-1.766,0.611-1.766c0.2-3.86-3.327-8.652-2.995-8.652
		c0.333,0,2.063-8.254,2.063-8.254c2.099-2.171,3.862-5.171,5.192-7.953c0,0,0.732-1.53,1.397-3.528
		c0.82-2.459,2.13-6.224,2.13-6.224l-0.4-0.399c-4.459,2.795-8.918,2.33-8.918,2.33l-0.133,0.465
		c0.067,0.533-1.764,7.422-1.764,7.422c-0.732,2.301-1.541,4.391-1.897,4.692c-0.864,0.732-0.399,1.531-0.864,1.798
		c-0.467,0.266-0.865,1.33-0.865,1.33s-0.999,1.598-1.464,3.661c-0.466,2.063,0.333,3.727,0.333,3.727
		c0.4,3.594,1.664,4.527,1.664,4.527c0.866,0.132,2.862,4.127,1.464,4.393c-1.397,0.266-2.296,0.732-3.395,0.466
		c-0.954-0.232-1.331-0.266-1.331-0.266c-0.51,0.028-1.315,0.823-1.996,1.996l-1.365,3.228c1.797,1.299-2.429,6.556-2.429,6.556l0,0
		c-0.714-0.527-0.963-0.506-1.93-1.265l-1.797-1.265c-1.148-0.94-2.01-1.306-3.434-2.294c0,0,1.454-1.982,1.703-2.431
		c0.25-0.449,1.848-1.347,2.147-1.447c0.3-0.1,1.498-0.5,1.498-0.5c0.116-0.109,0.166-0.128,0.274-0.249l0.062-0.098
		c1.662-1.865,2.413-4.958,2.46-5.194c0.05-0.25-0.25-1.946-0.25-1.946c2.446-13.278-0.898-14.577-0.898-14.577h-0.549
		c-3.295,5.491-5.442,6.49-6.59,6.64c-1.148,0.149-2.197-1.547-2.346-1.898c-0.15-0.349-1.198-2.045-1.397-2.795
		c-0.2-0.75-1.797-2.446-2.097-2.645c-0.299-0.2-4.193-0.2-4.392-0.2c-0.2,0-3.444,0.848-4.493,0.898
		c-1.048,0.05-2.696,0.7-3.045,0.75c-0.35,0.05-0.35,0.649-0.35,0.649c-0.599,0.599-0.748,3.244-0.748,3.244l-0.1,1.997
		c1.447,0.249,2.245,0.7,3.094,1.198c1.932,1.137,1.697,3.145,1.697,3.145c0.3,0.349-1.049,3.544-1.049,3.544
		c0.4-0.899-0.449,1.746-0.848,1.298c-1.03-1.159-1.797-1.447-3.245-2.745c-1.448-1.299,0.899,0.697-0.299-0.351
		c-1.199-1.047-2.896-1.447-3.195-1.796c-0.3-0.351-1.397-4.642-1.248-4.842c0.15-0.201-0.199-1.898-0.25-2.047
		c-0.05-0.149,2.547-6.889,2.547-6.889c3.696,0.403,7.726-0.784,10.577-1.918l0.555-0.179c2.276-0.906,3.245-1.597,3.245-1.597
		c-1.448-3.945-1.248-5.691-1.248-5.691c2.245,0.15,5.041-1.698,5.041-1.698c0.35,0.2,2.147-2.296,2.396-2.446
		c0.274-0.165,2.845-3.394,2.845-3.394c3.594-4.341,3.494-11.13,3.494-11.13c3.094,0.065,5.092-1.665,5.092-1.665
		c3.594-3.727,2.985-4.239,3.194-4.925c0.285-0.929,1.331-1.331,1.331-1.331l-0.265-0.798c-1.665,0.333-4.393-1.731-4.393-1.731
		c-4.925-3.594-12.246-1.731-12.246-1.731l0.931,1.464c6.256-0.533,9.185,2.929,8.785,3.728c-0.4,0.797-2.929,2.261-5.724,2.396
		c-2.417,0.115-4.193,0.199-3.793,0.199c0.4,0,0.732,3.527,0.732,3.527s-0.401,2.996-0.665,6.523
		c-0.4,5.325-2.612,7.072-2.612,7.072c-5.458-0.265-10.166,2.778-10.566,2.913c-0.4,0.132-2.396-1.464-2.264-1.863
		c0.134-0.401-0.399-1.865-0.132-2.53c0.266-0.665-1.997-5.191-2.264-5.457c-0.265-0.266-1.464-5.857-1.464-5.857l-1.065,0.266
		c-0.798,4.792-8.252,3.992-8.252,3.992c0.378-0.472,1.347-2.092,1.863-3.992c0,0,0.456-1.956,0.533-2.264
		c0.266-1.064,1.731-2.528,1.731-2.528c0.399-0.533,2.661-0.666,2.661-0.666l0.533-0.532c-8.785-2.53-6.389-8.918-6.389-8.918
		s2.463,3.576,4.792,3.726c1.643,0.106,3.328-0.532,3.993-1.863c0.666-1.331,5.192-3.195,6.124-2.529
		c0.931,0.666,4.259-0.4,4.259-0.4c4.925-3.194,0.266-8.12,0.266-8.12c6.922,0.399,5.192,9.584,5.192,9.584
		c0.532,0.133,3.062-0.665,3.062-0.665s7.851-2.774,10.115-2.53c13.578,1.464,17.172,15.042,17.172,15.042h3.195l3.461,0.798
		c-4.127-7.454-4.526-9.45-4.526-9.983c0-0.533,1.332-0.931,1.332-0.931c0.132-0.533,14.775,2.929,14.775,2.929l0.266-7.588
		c-15.041-5.324-29.418-5.856-29.418-5.856c-1.464-0.4-14.643,3.727-14.643,3.727c-0.532-4.393-2.795-6.123-5.856-7.321
		c-4.325-1.692-10.117-0.133-10.117-0.133v0.932c2.529,0.799,3.327,3.328,2.396,4.926c-0.931,1.597-1.731,1.198-1.731,1.198
		c-5.058-0.666-8.253,3.993-8.253,3.993s-0.498,0.349-1.397,0.05c-3.122-1.04-3.494-5.041-3.494-5.041l-0.45-0.649
		c-10.632,6.838-2.446,16.123-2.446,16.123C114.999,84.958,114.287,87.498,114.001,88.825 M216.149,145.321
		c-1.189,0.206-8.458,4.854-9.235,5.363c-0.215,0.141-3.595,2.399-6.489,3.048l0,0c0.35-0.949,1.347-4.317,0.15-7.014
		c-0.431-0.968,0.3-1.796,0.3-1.796s6.605,0.505,7.587-2.197c0.201-0.552-0.523-0.395-0.722-0.919l-0.061-0.066
		c-0.496-0.706-1.014-2.385-0.914-6.802c0,0,5.691-1.298,8.186-4.891c0,0,0.499,0.299,1.897,0.598
		c1.397,0.301,4.691,0.5,5.391,0.401c0.699-0.1,0,1.497,2.496,4.093l-0.499,1.298l-0.898,1.797c0,0-2.734-0.353-5.416,3.507
		l-0.183,0.208C217.1,142.867,216.474,143.878,216.149,145.321L216.149,145.321"/>
</g>
<g>
	<path fill="#FFFFFF" d="M25.793,331.837v-5.836l13.045-1.51v-0.067l-13.045-1.776v-6.44l13.045-1.776v-0.067l-13.045-1.51v-5.836
		l18.143,3.689v6.842l-12.845,1.844v0.067l12.845,1.844v6.842L25.793,331.837z"/>
	<path fill="#FFFFFF" d="M25.793,307.014v-5.836l13.045-1.509v-0.066l-13.045-1.778v-6.439l13.045-1.777v-0.067l-13.045-1.51v-5.835
		l18.143,3.688v6.843l-12.845,1.844v0.067l12.845,1.846v6.841L25.793,307.014z"/>
	<path fill="#FFFFFF" d="M25.793,282.192v-5.836l13.045-1.509v-0.067l-13.045-1.779v-6.438l13.045-1.779v-0.067l-13.045-1.508
		v-5.836l18.143,3.689v6.841l-12.845,1.846v0.066l12.845,1.844v6.842L25.793,282.192z"/>
	<path fill="#FFFFFF" d="M37.296,257.063v-5.635h6.641v5.635H37.296z"/>
	<path fill="#FFFFFF" d="M44.407,241.509c0,7.075-4.327,7.714-9.558,7.714c-4.763,0-9.525-0.907-9.525-7.714
		c0-7.077,4.326-7.714,9.559-7.714C39.644,233.795,44.407,234.7,44.407,241.509z M40.516,241.509c0-1.376-1.073-1.678-5.634-1.678
		c-4.595,0-5.668,0.302-5.668,1.678c0,1.341,1.073,1.677,5.668,1.677C39.443,243.185,40.516,242.85,40.516,241.509z"/>
	<path fill="#FFFFFF" d="M25.793,233.054v-6.037l4.862-1.811l-4.862-2.08v-6.037l8.786,4.562l9.357-4.796v6.037l-5.466,2.112
		l5.466,2.214v6.036l-9.357-4.795L25.793,233.054z"/>
	<path fill="#FFFFFF" d="M29.851,214.907v2.08h-4.057v-2.08h-1.308c-3.622,0-4.964-1.408-4.964-5.6c0-0.873,0.067-1.945,0.201-2.885
		h3.79c-0.067,0.303-0.101,0.571-0.101,1.007c0,0.738,0.369,1.442,1.275,1.442h1.107v-2.449h4.057v2.449h14.086v6.036H29.851z"/>
	<path fill="#FFFFFF" d="M44.407,198.038c0,7.076-4.327,7.714-9.558,7.714c-4.763,0-9.525-0.905-9.525-7.714
		c0-7.077,4.326-7.714,9.559-7.714C39.644,190.325,44.407,191.23,44.407,198.038z M40.516,198.038c0-1.376-1.073-1.677-5.634-1.677
		c-4.595,0-5.668,0.301-5.668,1.677c0,1.341,1.073,1.677,5.668,1.677C39.443,199.715,40.516,199.379,40.516,198.038z"/>
	<path fill="#FFFFFF" d="M25.793,188.611v-5.836h2.883v-0.067c-2.179-0.671-3.353-2.28-3.353-4.057v-0.973h5.635
		c-0.101,0.536-0.134,1.005-0.134,1.508c0,2.148,0.838,3.388,3.22,3.388h9.893v6.037H25.793z"/>
	<path fill="#FFFFFF" d="M19.991,167.754v-6.037h23.946v5.836h-2.482v0.067c2.012,0.739,2.952,1.979,2.952,4.126
		c0,4.059-3.22,5.433-9.928,5.433c-6.841,0-9.156-2.213-9.156-5.567c0-1.71,0.671-3.185,2.515-3.79v-0.067H19.991z M39.912,169.431
		c0-1.376-1.14-1.677-5.03-1.677c-3.924,0-5.065,0.301-5.065,1.677c0,1.409,1.141,1.711,5.065,1.711
		C38.772,171.142,39.912,170.84,39.912,169.431z"/>
	<path fill="#FFFFFF" d="M37.296,158.871v-5.635h6.641v5.635H37.296z"/>
	<path fill="#FFFFFF" d="M25.793,141.202v-5.634h17.841c4.964,0,6.473,3.321,6.473,7.58c0,3.891-0.973,6.943-5.097,7.044v-5.434
		c0.905,0,1.408-0.57,1.408-1.508c0-0.907-0.234-1.846-2.246-1.846h-3.455v0.067c2.08,0.771,2.716,2.415,2.716,4.092
		c0,2.414-1.408,5.299-8.954,5.299c-7.009,0-9.156-2.08-9.156-5.601c0-1.678,0.805-3.32,2.985-3.991v-0.067H25.793z M38.939,143.081
		c0-1.107-0.738-1.677-4.561-1.677c-3.79,0-4.561,0.57-4.561,1.677c0,1.141,0.771,1.744,4.561,1.744
		C38.202,144.824,38.939,144.221,38.939,143.081z"/>
	<path fill="#FFFFFF" d="M44.407,125.881c0,7.077-4.327,7.714-9.558,7.714c-4.763,0-9.525-0.905-9.525-7.714
		c0-7.077,4.326-7.714,9.559-7.714C39.644,118.167,44.407,119.072,44.407,125.881z M40.516,125.881c0-1.376-1.073-1.677-5.634-1.677
		c-4.595,0-5.668,0.301-5.668,1.677c0,1.341,1.073,1.677,5.668,1.677C39.443,127.557,40.516,127.222,40.516,125.881z"/>
	<path fill="#FFFFFF" d="M25.793,117.694v-6.239l13.045-1.71v-0.066l-13.045-1.678v-6.238l18.143,4.427v7.111L25.793,117.694z"/>
	<path fill="#FFFFFF" d="M37.296,102.266v-5.635h6.641v5.635H37.296z"/>
	<path fill="#FFFFFF" d="M25.793,93.887V87.85h11.973c1.509,0,2.146-0.402,2.146-1.475c0-1.073-0.637-1.475-2.146-1.475H25.793
		v-6.037h18.143v5.836h-2.214v0.067c1.777,0.771,2.684,2.314,2.684,4.393c0,2.649-1.04,4.729-4.93,4.729H25.793z"/>
	<path fill="#FFFFFF" d="M19.991,76.619v-6.036h12.074v-0.067l-6.271-3.354v-6.439l7.478,5.031l10.666-5.668v6.439l-6.238,3.052
		l1.576,1.006h4.662v6.036H19.991z"/>
</g>
<line fill="none" stroke="#FFFFFF" x1="65.124" y1="327.914" x2="65.124" y2="1.825"/>
<rect x="-42.923" y="-12.962" transform="matrix(1 -0.0059 0.0059 1 -1.0014 0.791)" fill="none" width="353.439" height="366.748"/>
</svg>
